M48
;Layer_Color=9474304
;FILE_FORMAT=4:3
METRIC,LZ
;TYPE=PLATED
T1F00S00C0.700
T2F00S00C0.711
T3F00S00C0.889
T4F00S00C0.900
T5F00S00C0.965
T6F00S00C1.067
T8F00S00C3.000
;TYPE=NON_PLATED
T9F00S00C0.914
%
T01
X0277495Y0173135
Y0175135
Y0177135
Y0179135
Y0181135
Y0183135
Y0185135
Y0187135
Y0189135
Y0191135
X0299491
Y0189135
Y0187135
Y0185135
Y0183135
Y0181135
Y0179135
Y0177135
Y0175135
Y0173135
T02
X033909Y0067945
X0345681Y0068186
X0313055Y007239
Y0076835
X028829Y00762
X028575
Y0066675
X028829
X0314325Y010795
X0318135
X0335915Y0113665
X0340995
X0332105Y013081
X0328295Y0130632
X032258Y012319
X0310515
T03
X0305435Y011049
X0307975
X0272415Y018796
Y01905
T04
X0318135Y006985
X0320675
X0323215
X0325755
X0330835
X0333375
X0335915
X0338455
X0340995
X0343535
X0315595
X0313055
X0310515
X0307975
X0311785Y009906
Y01016
X0314325
Y010414
X0311785
X0314325Y009906
X0314071Y011811
X0316611
X0311531
X0308991
X0306451
X0303911
X0301371
X0298831
X0319151
X0321691
X0325755
X0328295
X0330835
X0333375
X0335915
X0338455
X0340995
X0343535
X03429Y012827
X034036
X033782
X033528
X033274
X03302
X032766
X032512
X032258
X032004
X03175
X034544
X031496
X031242
X030988
X030734
X0360045Y0160655
Y0163195
T05
X031115Y0087575
Y0092075
X031765
Y0087575
T06
X0280797Y008001
X0283337
X0285877
X0288417
X0290957
X0333883Y0080137
X0336423
X0338963
X0341503
X0344043
T08
X0276812Y0082089
Y0107789
X0296162
Y0082089
X0329898Y0082216
X0349248
Y0107916
X0329898
T09
X029718Y012319
X030734
X026916Y015433
X026416Y014983
Y015883
X026797Y0170815
X0272415
Y0180975
X026797
M30
