%FSLAX43Y43*%
%MOMM*%
G71*
G01*
G75*
G04 Layer_Physical_Order=1*
G04 Layer_Color=255*
%ADD10C,0.508*%
%ADD11R,1.800X1.800*%
%ADD12C,1.800*%
%ADD13R,3.200X2.800*%
%ADD14C,1.500*%
%ADD15R,1.500X1.500*%
%ADD16C,2.032*%
%ADD17R,2.032X2.032*%
%ADD18C,1.524*%
%ADD19R,1.524X1.524*%
%ADD20C,2.540*%
%ADD21R,1.524X1.524*%
%ADD22C,1.905*%
%ADD23R,1.500X1.500*%
%ADD24C,1.270*%
D10*
X328473Y130810D02*
X332105D01*
X314325Y107950D02*
X318135D01*
X310515Y123190D02*
X322580D01*
X313055Y72390D02*
Y76835D01*
X345440Y67945D02*
X345681Y68186D01*
X339090Y67945D02*
X345440D01*
X288290Y66675D02*
Y76200D01*
X285750Y66675D02*
Y76200D01*
X335915Y113665D02*
X340995D01*
D11*
X277495Y191135D02*
D03*
D12*
Y189135D02*
D03*
Y187135D02*
D03*
Y185135D02*
D03*
Y183135D02*
D03*
Y181135D02*
D03*
Y179135D02*
D03*
Y177135D02*
D03*
Y175135D02*
D03*
Y173135D02*
D03*
X299491D02*
D03*
Y175135D02*
D03*
Y177135D02*
D03*
Y179135D02*
D03*
Y181135D02*
D03*
Y183135D02*
D03*
Y185135D02*
D03*
Y187135D02*
D03*
Y189135D02*
D03*
Y191135D02*
D03*
D13*
X361175Y146300D02*
D03*
Y151000D02*
D03*
Y141600D02*
D03*
D14*
X360045Y163195D02*
D03*
X314325Y104140D02*
D03*
X311785Y99060D02*
D03*
X314325Y101600D02*
D03*
X311785D02*
D03*
X314325Y99060D02*
D03*
X307340Y128270D02*
D03*
X309880D02*
D03*
X312420D02*
D03*
X314960D02*
D03*
X317500D02*
D03*
X320040D02*
D03*
X322580D02*
D03*
X325120D02*
D03*
X327660D02*
D03*
X330200D02*
D03*
X332740D02*
D03*
X335280D02*
D03*
X337820D02*
D03*
X340360D02*
D03*
X342900D02*
D03*
X298831Y118110D02*
D03*
X343535Y69850D02*
D03*
X340995D02*
D03*
X338455D02*
D03*
X335915D02*
D03*
X333375D02*
D03*
X330835D02*
D03*
X325755D02*
D03*
X323215D02*
D03*
X320675D02*
D03*
X318135D02*
D03*
X315595D02*
D03*
X313055D02*
D03*
X310515D02*
D03*
X307975D02*
D03*
X343535Y118110D02*
D03*
X340995D02*
D03*
X338455D02*
D03*
X335915D02*
D03*
X333375D02*
D03*
X330835D02*
D03*
X328295D02*
D03*
X325755D02*
D03*
X321691D02*
D03*
X319151D02*
D03*
X316611D02*
D03*
X314071D02*
D03*
X311531D02*
D03*
X308991D02*
D03*
X306451D02*
D03*
X303911D02*
D03*
X301371D02*
D03*
D15*
X360045Y160655D02*
D03*
X311785Y104140D02*
D03*
D16*
X317650Y92075D02*
D03*
Y87575D02*
D03*
X311150D02*
D03*
D17*
Y92075D02*
D03*
D18*
X305435Y110490D02*
D03*
X272415Y187960D02*
D03*
D19*
X307975Y110490D02*
D03*
D20*
X264160Y149830D02*
D03*
Y158830D02*
D03*
X269160Y154330D02*
D03*
X267970Y180975D02*
D03*
Y170815D02*
D03*
X307340Y123190D02*
D03*
X297180D02*
D03*
X272415Y170815D02*
D03*
Y180975D02*
D03*
D21*
Y190500D02*
D03*
D22*
X333883Y80137D02*
D03*
X336423D02*
D03*
X338963D02*
D03*
X341503D02*
D03*
X344043D02*
D03*
X280797Y80010D02*
D03*
X283337D02*
D03*
X285877D02*
D03*
X288417D02*
D03*
X290957D02*
D03*
D23*
X345440Y128270D02*
D03*
D24*
X328295Y130632D02*
D03*
X332105Y130810D02*
D03*
X318135Y107950D02*
D03*
X314325D02*
D03*
X310515Y123190D02*
D03*
X322580D02*
D03*
X313055Y72390D02*
D03*
Y76835D02*
D03*
X345681Y68186D02*
D03*
X339090Y67945D02*
D03*
X288290Y66675D02*
D03*
Y76200D02*
D03*
X285750D02*
D03*
Y66675D02*
D03*
X340995Y113665D02*
D03*
X335915D02*
D03*
M02*
