%FSLAX43Y43*%
%MOMM*%
G71*
G01*
G75*
%ADD10C,0.508*%
%ADD11R,1.800X1.800*%
%ADD12C,1.800*%
%ADD13R,3.200X2.800*%
%ADD14C,1.500*%
%ADD15R,1.500X1.500*%
%ADD16C,2.032*%
%ADD17R,2.032X2.032*%
%ADD18C,1.524*%
%ADD19R,1.524X1.524*%
%ADD20C,2.540*%
%ADD21R,1.524X1.524*%
%ADD22C,1.905*%
%ADD23R,1.500X1.500*%
%ADD24C,1.270*%
%ADD25C,0.254*%
%ADD26C,0.102*%
%ADD27C,0.200*%
%ADD28C,0.152*%
G36*
X272663Y111905D02*
Y111904D01*
Y111899D01*
Y111894D01*
Y111885D01*
X272661Y111874D01*
Y111863D01*
X272659Y111836D01*
X272656Y111805D01*
X272650Y111773D01*
X272642Y111743D01*
X272632Y111715D01*
Y111713D01*
X272630Y111712D01*
X272626Y111703D01*
X272619Y111692D01*
X272609Y111677D01*
X272595Y111661D01*
X272580Y111644D01*
X272560Y111627D01*
X272537Y111613D01*
X272535Y111612D01*
X272526Y111608D01*
X272513Y111602D01*
X272495Y111596D01*
X272473Y111589D01*
X272447Y111584D01*
X272419Y111579D01*
X272388Y111578D01*
X272375D01*
X272367Y111579D01*
X272355Y111581D01*
X272344Y111582D01*
X272315Y111588D01*
X272284Y111596D01*
X272251Y111609D01*
X272234Y111617D01*
X272219Y111627D01*
X272205Y111639D01*
X272191Y111651D01*
X272189Y111653D01*
X272188Y111654D01*
X272185Y111660D01*
X272181Y111665D01*
X272175Y111672D01*
X272169Y111682D01*
X272164Y111694D01*
X272157Y111706D01*
X272151Y111720D01*
X272145Y111737D01*
X272140Y111754D01*
X272134Y111774D01*
X272131Y111795D01*
X272127Y111819D01*
X272126Y111843D01*
Y111870D01*
X272243Y111887D01*
Y111885D01*
Y111882D01*
Y111877D01*
X272244Y111868D01*
X272246Y111860D01*
Y111850D01*
X272250Y111826D01*
X272254Y111801D01*
X272262Y111775D01*
X272271Y111753D01*
X272277Y111743D01*
X272284Y111734D01*
X272285Y111733D01*
X272291Y111729D01*
X272299Y111722D01*
X272310Y111715D01*
X272326Y111706D01*
X272343Y111701D01*
X272364Y111695D01*
X272387Y111694D01*
X272395D01*
X272403Y111695D01*
X272416Y111696D01*
X272429Y111699D01*
X272443Y111702D01*
X272457Y111708D01*
X272471Y111715D01*
X272473Y111716D01*
X272477Y111719D01*
X272482Y111725D01*
X272491Y111730D01*
X272498Y111740D01*
X272506Y111750D01*
X272513Y111761D01*
X272519Y111775D01*
Y111777D01*
X272522Y111782D01*
X272523Y111792D01*
X272526Y111805D01*
X272529Y111822D01*
X272530Y111843D01*
X272533Y111868D01*
Y111898D01*
Y112570D01*
X272663D01*
Y111905D01*
D02*
G37*
G36*
X326382Y112696D02*
X326406Y112695D01*
X326431Y112693D01*
X326455Y112690D01*
X326476Y112688D01*
X326479D01*
X326489Y112685D01*
X326502Y112682D01*
X326519Y112678D01*
X326537Y112671D01*
X326557Y112662D01*
X326578Y112652D01*
X326596Y112641D01*
X326599Y112640D01*
X326604Y112635D01*
X326613Y112627D01*
X326624Y112617D01*
X326637Y112604D01*
X326650Y112587D01*
X326664Y112569D01*
X326675Y112548D01*
X326676Y112545D01*
X326679Y112538D01*
X326685Y112525D01*
X326690Y112509D01*
X326695Y112489D01*
X326700Y112466D01*
X326703Y112441D01*
X326705Y112414D01*
Y112413D01*
Y112408D01*
Y112403D01*
X326703Y112393D01*
X326702Y112383D01*
X326700Y112370D01*
X326698Y112356D01*
X326695Y112341D01*
X326685Y112308D01*
X326679Y112291D01*
X326671Y112273D01*
X326661Y112255D01*
X326651Y112238D01*
X326638Y112221D01*
X326624Y112204D01*
X326623Y112203D01*
X326620Y112200D01*
X326616Y112196D01*
X326609Y112191D01*
X326600Y112184D01*
X326589Y112177D01*
X326575Y112169D01*
X326559Y112162D01*
X326541Y112153D01*
X326520Y112145D01*
X326497Y112138D01*
X326471Y112132D01*
X326442Y112126D01*
X326411Y112122D01*
X326376Y112119D01*
X326339Y112118D01*
X326090D01*
Y111722D01*
X325960D01*
Y112697D01*
X326361D01*
X326382Y112696D01*
D02*
G37*
G36*
X273296Y112569D02*
X273320Y112568D01*
X273345Y112566D01*
X273369Y112563D01*
X273390Y112561D01*
X273393D01*
X273403Y112558D01*
X273416Y112555D01*
X273432Y112551D01*
X273451Y112544D01*
X273471Y112535D01*
X273492Y112525D01*
X273510Y112514D01*
X273513Y112513D01*
X273518Y112508D01*
X273527Y112500D01*
X273538Y112490D01*
X273551Y112477D01*
X273564Y112460D01*
X273578Y112442D01*
X273589Y112421D01*
X273590Y112418D01*
X273593Y112411D01*
X273599Y112398D01*
X273604Y112382D01*
X273609Y112362D01*
X273614Y112339D01*
X273617Y112314D01*
X273619Y112287D01*
Y112286D01*
Y112281D01*
Y112276D01*
X273617Y112266D01*
X273616Y112256D01*
X273614Y112243D01*
X273612Y112229D01*
X273609Y112214D01*
X273599Y112181D01*
X273593Y112164D01*
X273585Y112146D01*
X273575Y112128D01*
X273565Y112111D01*
X273552Y112094D01*
X273538Y112077D01*
X273537Y112076D01*
X273534Y112073D01*
X273530Y112069D01*
X273523Y112064D01*
X273514Y112057D01*
X273503Y112050D01*
X273489Y112042D01*
X273473Y112035D01*
X273455Y112026D01*
X273434Y112018D01*
X273411Y112011D01*
X273385Y112005D01*
X273356Y111999D01*
X273325Y111995D01*
X273290Y111992D01*
X273253Y111991D01*
X273004D01*
Y111595D01*
X272874D01*
Y112570D01*
X273275D01*
X273296Y112569D01*
D02*
G37*
G36*
X274185Y111595D02*
X274065D01*
Y112358D01*
X274064Y112356D01*
X274057Y112351D01*
X274049Y112342D01*
X274034Y112332D01*
X274019Y112319D01*
X273999Y112305D01*
X273977Y112290D01*
X273951Y112274D01*
X273950D01*
X273948Y112273D01*
X273940Y112267D01*
X273926Y112260D01*
X273909Y112252D01*
X273889Y112242D01*
X273868Y112232D01*
X273847Y112222D01*
X273826Y112214D01*
Y112329D01*
X273827D01*
X273830Y112332D01*
X273836Y112334D01*
X273843Y112338D01*
X273851Y112342D01*
X273861Y112348D01*
X273885Y112362D01*
X273913Y112377D01*
X273941Y112397D01*
X273971Y112420D01*
X274001Y112444D01*
X274002Y112445D01*
X274003Y112446D01*
X274008Y112451D01*
X274013Y112455D01*
X274026Y112469D01*
X274043Y112486D01*
X274060Y112506D01*
X274078Y112528D01*
X274094Y112551D01*
X274108Y112575D01*
X274185D01*
Y111595D01*
D02*
G37*
G36*
X327167Y112700D02*
X327178Y112699D01*
X327192Y112697D01*
X327208Y112695D01*
X327223Y112692D01*
X327260Y112682D01*
X327297Y112668D01*
X327315Y112659D01*
X327333Y112649D01*
X327350Y112637D01*
X327366Y112623D01*
X327367Y112621D01*
X327370Y112620D01*
X327373Y112614D01*
X327378Y112609D01*
X327385Y112602D01*
X327393Y112592D01*
X327400Y112582D01*
X327408Y112569D01*
X327422Y112542D01*
X327436Y112509D01*
X327442Y112492D01*
X327445Y112472D01*
X327448Y112452D01*
X327449Y112431D01*
Y112428D01*
Y112421D01*
X327448Y112410D01*
X327446Y112394D01*
X327443Y112377D01*
X327438Y112358D01*
X327432Y112337D01*
X327424Y112315D01*
X327422Y112313D01*
X327419Y112306D01*
X327414Y112294D01*
X327405Y112279D01*
X327394Y112262D01*
X327380Y112241D01*
X327363Y112220D01*
X327343Y112196D01*
X327340Y112193D01*
X327333Y112184D01*
X327326Y112177D01*
X327319Y112170D01*
X327311Y112162D01*
X327299Y112150D01*
X327288Y112139D01*
X327274Y112126D01*
X327260Y112112D01*
X327243Y112097D01*
X327225Y112081D01*
X327205Y112063D01*
X327182Y112045D01*
X327160Y112025D01*
X327159Y112024D01*
X327156Y112021D01*
X327150Y112017D01*
X327143Y112011D01*
X327135Y112002D01*
X327125Y111994D01*
X327102Y111976D01*
X327078Y111954D01*
X327056Y111933D01*
X327036Y111915D01*
X327027Y111908D01*
X327020Y111901D01*
X327019Y111900D01*
X327015Y111895D01*
X327009Y111890D01*
X327002Y111881D01*
X326995Y111871D01*
X326987Y111861D01*
X326970Y111838D01*
X327450D01*
Y111722D01*
X326803D01*
Y111723D01*
Y111729D01*
Y111737D01*
X326805Y111749D01*
X326806Y111761D01*
X326809Y111775D01*
X326812Y111790D01*
X326817Y111805D01*
Y111806D01*
X326819Y111808D01*
X326822Y111816D01*
X326827Y111829D01*
X326836Y111846D01*
X326847Y111866D01*
X326861Y111888D01*
X326877Y111911D01*
X326896Y111935D01*
Y111936D01*
X326899Y111938D01*
X326906Y111946D01*
X326919Y111959D01*
X326937Y111977D01*
X326958Y111998D01*
X326985Y112024D01*
X327018Y112052D01*
X327053Y112081D01*
X327054Y112083D01*
X327060Y112087D01*
X327068Y112094D01*
X327078Y112103D01*
X327091Y112114D01*
X327106Y112126D01*
X327122Y112141D01*
X327140Y112156D01*
X327175Y112190D01*
X327211Y112224D01*
X327228Y112241D01*
X327243Y112258D01*
X327257Y112273D01*
X327268Y112289D01*
Y112290D01*
X327271Y112291D01*
X327274Y112296D01*
X327277Y112301D01*
X327287Y112317D01*
X327298Y112335D01*
X327308Y112358D01*
X327318Y112382D01*
X327323Y112408D01*
X327326Y112434D01*
Y112435D01*
Y112437D01*
X327325Y112445D01*
X327323Y112459D01*
X327319Y112475D01*
X327314Y112494D01*
X327304Y112514D01*
X327291Y112534D01*
X327274Y112554D01*
X327271Y112556D01*
X327264Y112562D01*
X327254Y112569D01*
X327239Y112579D01*
X327219Y112587D01*
X327197Y112596D01*
X327170Y112602D01*
X327140Y112603D01*
X327132D01*
X327126Y112602D01*
X327109Y112600D01*
X327089Y112596D01*
X327068Y112590D01*
X327044Y112580D01*
X327022Y112568D01*
X327001Y112551D01*
X326998Y112548D01*
X326992Y112541D01*
X326984Y112530D01*
X326975Y112513D01*
X326965Y112493D01*
X326957Y112468D01*
X326951Y112439D01*
X326948Y112407D01*
X326826Y112420D01*
Y112421D01*
X326827Y112425D01*
Y112432D01*
X326829Y112442D01*
X326831Y112454D01*
X326834Y112466D01*
X326839Y112482D01*
X326843Y112497D01*
X326854Y112531D01*
X326871Y112565D01*
X326881Y112582D01*
X326893Y112599D01*
X326906Y112614D01*
X326920Y112628D01*
X326922Y112630D01*
X326924Y112631D01*
X326929Y112635D01*
X326936Y112640D01*
X326944Y112645D01*
X326954Y112651D01*
X326965Y112658D01*
X326979Y112665D01*
X326995Y112672D01*
X327012Y112679D01*
X327030Y112685D01*
X327050Y112690D01*
X327071Y112695D01*
X327094Y112699D01*
X327118Y112700D01*
X327143Y112702D01*
X327157D01*
X327167Y112700D01*
D02*
G37*
G36*
X272187Y193802D02*
X272200Y193801D01*
X272216Y193800D01*
X272231Y193798D01*
X272249Y193794D01*
X272287Y193786D01*
X272330Y193773D01*
X272351Y193764D01*
X272371Y193754D01*
X272390Y193742D01*
X272410Y193729D01*
X272411Y193728D01*
X272414Y193726D01*
X272420Y193722D01*
X272427Y193715D01*
X272434Y193708D01*
X272444Y193698D01*
X272454Y193687D01*
X272465Y193676D01*
X272476Y193661D01*
X272488Y193645D01*
X272500Y193628D01*
X272512Y193609D01*
X272521Y193588D01*
X272533Y193567D01*
X272541Y193544D01*
X272550Y193519D01*
X272423Y193489D01*
Y193491D01*
X272421Y193494D01*
X272419Y193499D01*
X272416Y193506D01*
X272413Y193515D01*
X272409Y193526D01*
X272397Y193549D01*
X272383Y193574D01*
X272366Y193599D01*
X272345Y193623D01*
X272323Y193645D01*
X272320Y193647D01*
X272311Y193653D01*
X272297Y193660D01*
X272279Y193670D01*
X272255Y193678D01*
X272228Y193687D01*
X272196Y193692D01*
X272161Y193694D01*
X272149D01*
X272142Y193692D01*
X272132D01*
X272121Y193691D01*
X272094Y193687D01*
X272065Y193681D01*
X272034Y193671D01*
X272001Y193657D01*
X271972Y193639D01*
X271970D01*
X271969Y193636D01*
X271959Y193629D01*
X271946Y193618D01*
X271931Y193601D01*
X271912Y193580D01*
X271896Y193556D01*
X271880Y193526D01*
X271866Y193494D01*
Y193492D01*
X271865Y193489D01*
X271863Y193485D01*
X271862Y193478D01*
X271859Y193470D01*
X271856Y193460D01*
X271852Y193436D01*
X271846Y193408D01*
X271841Y193377D01*
X271838Y193343D01*
X271836Y193306D01*
Y193305D01*
Y193301D01*
Y193294D01*
Y193285D01*
X271838Y193275D01*
Y193262D01*
X271839Y193248D01*
X271841Y193233D01*
X271845Y193199D01*
X271852Y193162D01*
X271860Y193126D01*
X271872Y193089D01*
Y193088D01*
X271873Y193085D01*
X271876Y193081D01*
X271879Y193074D01*
X271887Y193057D01*
X271900Y193037D01*
X271915Y193014D01*
X271935Y192990D01*
X271958Y192969D01*
X271984Y192950D01*
X271986D01*
X271989Y192948D01*
X271993Y192945D01*
X271998Y192943D01*
X272005Y192940D01*
X272014Y192935D01*
X272034Y192927D01*
X272059Y192919D01*
X272087Y192911D01*
X272118Y192906D01*
X272151Y192904D01*
X272161D01*
X272169Y192906D01*
X272179D01*
X272189Y192907D01*
X272214Y192913D01*
X272244Y192920D01*
X272273Y192931D01*
X272304Y192947D01*
X272320Y192955D01*
X272334Y192966D01*
X272335Y192968D01*
X272337Y192969D01*
X272341Y192974D01*
X272347Y192978D01*
X272352Y192985D01*
X272359Y192993D01*
X272368Y193002D01*
X272375Y193013D01*
X272383Y193026D01*
X272393Y193040D01*
X272402Y193054D01*
X272410Y193071D01*
X272417Y193089D01*
X272424Y193109D01*
X272431Y193130D01*
X272437Y193153D01*
X272567Y193120D01*
Y193119D01*
X272565Y193113D01*
X272562Y193105D01*
X272558Y193093D01*
X272554Y193081D01*
X272548Y193065D01*
X272541Y193048D01*
X272533Y193030D01*
X272513Y192990D01*
X272488Y192951D01*
X272472Y192931D01*
X272457Y192911D01*
X272440Y192895D01*
X272420Y192878D01*
X272419Y192876D01*
X272416Y192873D01*
X272409Y192871D01*
X272402Y192865D01*
X272390Y192858D01*
X272379Y192851D01*
X272364Y192844D01*
X272348Y192837D01*
X272330Y192828D01*
X272310Y192821D01*
X272289Y192814D01*
X272266Y192807D01*
X272242Y192802D01*
X272217Y192799D01*
X272190Y192796D01*
X272162Y192794D01*
X272146D01*
X272135Y192796D01*
X272122D01*
X272107Y192797D01*
X272090Y192800D01*
X272070Y192803D01*
X272029Y192810D01*
X271987Y192821D01*
X271945Y192837D01*
X271925Y192847D01*
X271905Y192858D01*
X271904Y192859D01*
X271901Y192861D01*
X271896Y192865D01*
X271890Y192871D01*
X271881Y192876D01*
X271872Y192885D01*
X271860Y192895D01*
X271849Y192906D01*
X271838Y192919D01*
X271825Y192931D01*
X271800Y192964D01*
X271776Y193002D01*
X271755Y193044D01*
Y193045D01*
X271752Y193050D01*
X271750Y193057D01*
X271746Y193065D01*
X271743Y193076D01*
X271739Y193091D01*
X271733Y193106D01*
X271729Y193123D01*
X271725Y193141D01*
X271719Y193162D01*
X271712Y193206D01*
X271707Y193255D01*
X271704Y193306D01*
Y193308D01*
Y193313D01*
Y193322D01*
X271705Y193332D01*
Y193346D01*
X271707Y193360D01*
X271708Y193378D01*
X271711Y193396D01*
X271718Y193437D01*
X271728Y193482D01*
X271742Y193528D01*
X271762Y193571D01*
X271763Y193573D01*
X271764Y193577D01*
X271767Y193583D01*
X271773Y193590D01*
X271779Y193599D01*
X271786Y193611D01*
X271804Y193636D01*
X271828Y193664D01*
X271856Y193692D01*
X271888Y193721D01*
X271927Y193745D01*
X271928Y193746D01*
X271932Y193747D01*
X271938Y193750D01*
X271945Y193754D01*
X271956Y193759D01*
X271967Y193763D01*
X271982Y193769D01*
X271997Y193774D01*
X272014Y193780D01*
X272032Y193786D01*
X272072Y193794D01*
X272117Y193801D01*
X272163Y193804D01*
X272177D01*
X272187Y193802D01*
D02*
G37*
G36*
X267646Y183880D02*
X267659D01*
X267689Y183878D01*
X267720Y183874D01*
X267754Y183870D01*
X267785Y183863D01*
X267800Y183858D01*
X267813Y183854D01*
X267814D01*
X267816Y183853D01*
X267824Y183848D01*
X267837Y183843D01*
X267852Y183833D01*
X267869Y183820D01*
X267887Y183803D01*
X267904Y183784D01*
X267921Y183761D01*
Y183760D01*
X267923Y183758D01*
X267928Y183750D01*
X267934Y183736D01*
X267942Y183717D01*
X267949Y183696D01*
X267957Y183671D01*
X267961Y183644D01*
X267962Y183614D01*
Y183613D01*
Y183610D01*
Y183605D01*
X267961Y183598D01*
Y183588D01*
X267959Y183578D01*
X267954Y183554D01*
X267945Y183526D01*
X267934Y183496D01*
X267917Y183466D01*
X267906Y183452D01*
X267895Y183438D01*
X267893Y183437D01*
X267892Y183435D01*
X267887Y183431D01*
X267882Y183427D01*
X267875Y183421D01*
X267866Y183416D01*
X267855Y183409D01*
X267844Y183400D01*
X267830Y183393D01*
X267814Y183386D01*
X267797Y183378D01*
X267779Y183371D01*
X267758Y183365D01*
X267737Y183358D01*
X267713Y183354D01*
X267687Y183349D01*
X267690Y183348D01*
X267696Y183345D01*
X267704Y183340D01*
X267715Y183334D01*
X267741Y183318D01*
X267754Y183309D01*
X267765Y183300D01*
X267768Y183297D01*
X267775Y183290D01*
X267786Y183279D01*
X267800Y183265D01*
X267816Y183245D01*
X267834Y183224D01*
X267852Y183199D01*
X267872Y183170D01*
X268040Y182905D01*
X267879D01*
X267751Y183108D01*
Y183110D01*
X267748Y183113D01*
X267745Y183117D01*
X267741Y183122D01*
X267731Y183138D01*
X267718Y183158D01*
X267703Y183179D01*
X267687Y183201D01*
X267672Y183223D01*
X267658Y183242D01*
X267656Y183244D01*
X267652Y183249D01*
X267645Y183258D01*
X267635Y183268D01*
X267614Y183289D01*
X267603Y183299D01*
X267591Y183307D01*
X267590Y183309D01*
X267587Y183310D01*
X267582Y183313D01*
X267573Y183317D01*
X267565Y183321D01*
X267555Y183325D01*
X267532Y183333D01*
X267531D01*
X267528Y183334D01*
X267522D01*
X267515Y183335D01*
X267505Y183337D01*
X267494D01*
X267479Y183338D01*
X267312D01*
Y182905D01*
X267183D01*
Y183881D01*
X267635D01*
X267646Y183880D01*
D02*
G37*
G36*
X325749Y112032D02*
Y112031D01*
Y112026D01*
Y112021D01*
Y112012D01*
X325747Y112001D01*
Y111990D01*
X325745Y111963D01*
X325742Y111932D01*
X325736Y111900D01*
X325728Y111870D01*
X325718Y111842D01*
Y111840D01*
X325716Y111839D01*
X325712Y111830D01*
X325705Y111819D01*
X325695Y111804D01*
X325681Y111788D01*
X325666Y111771D01*
X325646Y111754D01*
X325623Y111740D01*
X325621Y111739D01*
X325612Y111735D01*
X325599Y111729D01*
X325581Y111723D01*
X325559Y111716D01*
X325533Y111711D01*
X325505Y111706D01*
X325474Y111705D01*
X325461D01*
X325453Y111706D01*
X325441Y111708D01*
X325430Y111709D01*
X325401Y111715D01*
X325370Y111723D01*
X325337Y111736D01*
X325320Y111744D01*
X325305Y111754D01*
X325291Y111766D01*
X325277Y111778D01*
X325275Y111780D01*
X325274Y111781D01*
X325271Y111787D01*
X325267Y111792D01*
X325261Y111799D01*
X325255Y111809D01*
X325250Y111821D01*
X325243Y111833D01*
X325237Y111847D01*
X325231Y111864D01*
X325226Y111881D01*
X325220Y111901D01*
X325217Y111922D01*
X325213Y111946D01*
X325212Y111970D01*
Y111997D01*
X325329Y112014D01*
Y112012D01*
Y112009D01*
Y112004D01*
X325330Y111995D01*
X325332Y111987D01*
Y111977D01*
X325336Y111953D01*
X325340Y111928D01*
X325348Y111902D01*
X325357Y111880D01*
X325363Y111870D01*
X325370Y111861D01*
X325371Y111860D01*
X325377Y111856D01*
X325385Y111849D01*
X325396Y111842D01*
X325412Y111833D01*
X325429Y111828D01*
X325450Y111822D01*
X325473Y111821D01*
X325481D01*
X325489Y111822D01*
X325502Y111823D01*
X325515Y111826D01*
X325529Y111829D01*
X325543Y111835D01*
X325557Y111842D01*
X325559Y111843D01*
X325563Y111846D01*
X325568Y111852D01*
X325577Y111857D01*
X325584Y111867D01*
X325592Y111877D01*
X325599Y111888D01*
X325605Y111902D01*
Y111904D01*
X325608Y111909D01*
X325609Y111919D01*
X325612Y111932D01*
X325615Y111949D01*
X325616Y111970D01*
X325619Y111995D01*
Y112025D01*
Y112697D01*
X325749D01*
Y112032D01*
D02*
G37*
G36*
X273128Y192811D02*
X273008D01*
Y193574D01*
X273006Y193573D01*
X272999Y193567D01*
X272991Y193559D01*
X272977Y193549D01*
X272961Y193536D01*
X272942Y193522D01*
X272919Y193506D01*
X272894Y193491D01*
X272892D01*
X272891Y193489D01*
X272882Y193484D01*
X272868Y193477D01*
X272851Y193468D01*
X272832Y193458D01*
X272810Y193449D01*
X272789Y193439D01*
X272768Y193430D01*
Y193546D01*
X272770D01*
X272772Y193549D01*
X272778Y193550D01*
X272785Y193554D01*
X272793Y193559D01*
X272803Y193564D01*
X272827Y193578D01*
X272856Y193594D01*
X272884Y193614D01*
X272913Y193636D01*
X272943Y193660D01*
X272944Y193661D01*
X272946Y193663D01*
X272950Y193667D01*
X272956Y193671D01*
X272968Y193685D01*
X272985Y193702D01*
X273002Y193722D01*
X273020Y193745D01*
X273036Y193767D01*
X273050Y193791D01*
X273128D01*
Y192811D01*
D02*
G37*
G36*
X272682Y128909D02*
X271919D01*
X271920Y128908D01*
X271926Y128901D01*
X271935Y128892D01*
X271944Y128878D01*
X271957Y128863D01*
X271971Y128843D01*
X271987Y128820D01*
X272002Y128795D01*
Y128793D01*
X272004Y128792D01*
X272009Y128784D01*
X272016Y128769D01*
X272025Y128753D01*
X272035Y128733D01*
X272045Y128712D01*
X272054Y128691D01*
X272063Y128669D01*
X271947D01*
Y128671D01*
X271944Y128674D01*
X271943Y128679D01*
X271939Y128686D01*
X271935Y128695D01*
X271929Y128705D01*
X271915Y128729D01*
X271899Y128757D01*
X271880Y128785D01*
X271857Y128815D01*
X271833Y128844D01*
X271832Y128846D01*
X271830Y128847D01*
X271826Y128851D01*
X271822Y128857D01*
X271808Y128870D01*
X271791Y128886D01*
X271771Y128903D01*
X271748Y128922D01*
X271726Y128937D01*
X271702Y128951D01*
Y129029D01*
X272682D01*
Y128909D01*
D02*
G37*
G36*
X271825Y183994D02*
X271837D01*
X271867Y183992D01*
X271898Y183988D01*
X271932Y183984D01*
X271963Y183977D01*
X271978Y183973D01*
X271991Y183968D01*
X271992D01*
X271994Y183967D01*
X272002Y183963D01*
X272015Y183957D01*
X272031Y183947D01*
X272047Y183935D01*
X272066Y183918D01*
X272083Y183898D01*
X272100Y183875D01*
Y183874D01*
X272101Y183873D01*
X272107Y183864D01*
X272112Y183850D01*
X272121Y183832D01*
X272128Y183811D01*
X272135Y183785D01*
X272139Y183758D01*
X272140Y183729D01*
Y183727D01*
Y183725D01*
Y183719D01*
X272139Y183712D01*
Y183702D01*
X272138Y183692D01*
X272132Y183668D01*
X272124Y183640D01*
X272112Y183610D01*
X272095Y183581D01*
X272084Y183567D01*
X272073Y183553D01*
X272071Y183551D01*
X272070Y183550D01*
X272066Y183546D01*
X272060Y183541D01*
X272053Y183536D01*
X272045Y183530D01*
X272033Y183523D01*
X272022Y183514D01*
X272008Y183507D01*
X271992Y183500D01*
X271976Y183492D01*
X271957Y183485D01*
X271936Y183479D01*
X271915Y183472D01*
X271891Y183468D01*
X271866Y183464D01*
X271868Y183462D01*
X271874Y183460D01*
X271882Y183454D01*
X271894Y183448D01*
X271919Y183433D01*
X271932Y183423D01*
X271943Y183414D01*
X271946Y183412D01*
X271953Y183405D01*
X271964Y183393D01*
X271978Y183379D01*
X271994Y183359D01*
X272012Y183338D01*
X272031Y183313D01*
X272050Y183285D01*
X272218Y183020D01*
X272057D01*
X271929Y183223D01*
Y183224D01*
X271926Y183227D01*
X271923Y183231D01*
X271919Y183237D01*
X271909Y183252D01*
X271897Y183272D01*
X271881Y183293D01*
X271866Y183316D01*
X271850Y183337D01*
X271836Y183357D01*
X271835Y183358D01*
X271830Y183364D01*
X271823Y183372D01*
X271813Y183382D01*
X271792Y183403D01*
X271781Y183413D01*
X271770Y183421D01*
X271768Y183423D01*
X271765Y183424D01*
X271760Y183427D01*
X271751Y183431D01*
X271743Y183436D01*
X271733Y183440D01*
X271711Y183447D01*
X271709D01*
X271706Y183448D01*
X271701D01*
X271694Y183450D01*
X271684Y183451D01*
X271672D01*
X271657Y183452D01*
X271491D01*
Y183020D01*
X271361D01*
Y183995D01*
X271813D01*
X271825Y183994D01*
D02*
G37*
G36*
X272745Y183020D02*
X272625D01*
Y183782D01*
X272624Y183781D01*
X272617Y183775D01*
X272608Y183767D01*
X272594Y183757D01*
X272579Y183744D01*
X272559Y183730D01*
X272537Y183715D01*
X272511Y183699D01*
X272510D01*
X272508Y183698D01*
X272500Y183692D01*
X272486Y183685D01*
X272469Y183677D01*
X272449Y183667D01*
X272428Y183657D01*
X272407Y183647D01*
X272386Y183639D01*
Y183754D01*
X272387D01*
X272390Y183757D01*
X272396Y183758D01*
X272403Y183763D01*
X272411Y183767D01*
X272421Y183772D01*
X272445Y183787D01*
X272473Y183802D01*
X272501Y183822D01*
X272531Y183844D01*
X272561Y183868D01*
X272562Y183870D01*
X272563Y183871D01*
X272568Y183875D01*
X272573Y183880D01*
X272586Y183894D01*
X272603Y183911D01*
X272620Y183930D01*
X272638Y183953D01*
X272654Y183975D01*
X272668Y183999D01*
X272745D01*
Y183020D01*
D02*
G37*
G36*
X350175Y119408D02*
X350178Y119405D01*
X350179Y119399D01*
X350183Y119392D01*
X350188Y119384D01*
X350193Y119374D01*
X350207Y119350D01*
X350223Y119322D01*
X350243Y119294D01*
X350265Y119264D01*
X350289Y119234D01*
X350291Y119233D01*
X350292Y119232D01*
X350296Y119227D01*
X350300Y119222D01*
X350315Y119209D01*
X350331Y119192D01*
X350351Y119175D01*
X350374Y119157D01*
X350396Y119141D01*
X350420Y119127D01*
Y119050D01*
X349440D01*
Y119170D01*
X350203D01*
X350202Y119171D01*
X350196Y119178D01*
X350188Y119187D01*
X350178Y119201D01*
X350165Y119216D01*
X350151Y119236D01*
X350135Y119258D01*
X350120Y119284D01*
Y119285D01*
X350119Y119287D01*
X350113Y119295D01*
X350106Y119309D01*
X350097Y119326D01*
X350088Y119346D01*
X350078Y119367D01*
X350068Y119388D01*
X350059Y119409D01*
X350175D01*
Y119408D01*
D02*
G37*
G36*
X350416Y120304D02*
X349831D01*
X349821Y120303D01*
X349808D01*
X349782Y120302D01*
X349751Y120299D01*
X349720Y120295D01*
X349690Y120289D01*
X349677Y120286D01*
X349665Y120282D01*
X349662Y120280D01*
X349655Y120278D01*
X349645Y120271D01*
X349631Y120262D01*
X349617Y120252D01*
X349601Y120238D01*
X349586Y120221D01*
X349573Y120201D01*
X349572Y120199D01*
X349567Y120192D01*
X349563Y120179D01*
X349557Y120162D01*
X349550Y120142D01*
X349546Y120117D01*
X349542Y120090D01*
X349541Y120061D01*
Y120059D01*
Y120055D01*
Y120046D01*
X349542Y120038D01*
Y120025D01*
X349543Y120013D01*
X349549Y119982D01*
X349556Y119948D01*
X349567Y119915D01*
X349583Y119884D01*
X349593Y119870D01*
X349604Y119858D01*
X349605Y119856D01*
X349607Y119855D01*
X349611Y119852D01*
X349617Y119848D01*
X349625Y119843D01*
X349634Y119838D01*
X349646Y119832D01*
X349659Y119827D01*
X349674Y119821D01*
X349693Y119817D01*
X349714Y119811D01*
X349737Y119807D01*
X349762Y119803D01*
X349789Y119800D01*
X349820Y119797D01*
X350416D01*
Y119667D01*
X349828D01*
X349815Y119669D01*
X349801D01*
X349784Y119670D01*
X349768Y119671D01*
X349729Y119676D01*
X349690Y119681D01*
X349652Y119690D01*
X349634Y119695D01*
X349617Y119701D01*
X349615D01*
X349612Y119702D01*
X349608Y119705D01*
X349603Y119708D01*
X349587Y119717D01*
X349567Y119729D01*
X349545Y119746D01*
X349522Y119766D01*
X349498Y119791D01*
X349477Y119822D01*
Y119824D01*
X349474Y119827D01*
X349473Y119831D01*
X349469Y119838D01*
X349464Y119846D01*
X349460Y119858D01*
X349456Y119869D01*
X349450Y119883D01*
X349445Y119898D01*
X349440Y119915D01*
X349436Y119934D01*
X349432Y119955D01*
X349429Y119976D01*
X349426Y119998D01*
X349424Y120049D01*
Y120051D01*
Y120055D01*
Y120062D01*
X349425Y120072D01*
Y120083D01*
X349426Y120097D01*
X349428Y120113D01*
X349429Y120128D01*
X349435Y120163D01*
X349443Y120201D01*
X349455Y120238D01*
X349470Y120273D01*
Y120275D01*
X349473Y120278D01*
X349476Y120282D01*
X349479Y120287D01*
X349490Y120303D01*
X349505Y120321D01*
X349525Y120342D01*
X349548Y120362D01*
X349576Y120382D01*
X349607Y120397D01*
X349608D01*
X349611Y120399D01*
X349617Y120400D01*
X349624Y120403D01*
X349632Y120406D01*
X349643Y120409D01*
X349656Y120413D01*
X349672Y120416D01*
X349689Y120419D01*
X349707Y120423D01*
X349727Y120426D01*
X349748Y120428D01*
X349772Y120431D01*
X349797Y120433D01*
X349824Y120434D01*
X350416D01*
Y120304D01*
D02*
G37*
G36*
X295135Y122832D02*
X294932Y122704D01*
X294931D01*
X294928Y122701D01*
X294924Y122698D01*
X294918Y122694D01*
X294903Y122684D01*
X294883Y122672D01*
X294862Y122656D01*
X294839Y122641D01*
X294818Y122625D01*
X294798Y122611D01*
X294797Y122610D01*
X294791Y122605D01*
X294783Y122598D01*
X294773Y122588D01*
X294752Y122567D01*
X294742Y122556D01*
X294734Y122545D01*
X294732Y122543D01*
X294731Y122540D01*
X294728Y122535D01*
X294724Y122526D01*
X294719Y122518D01*
X294715Y122508D01*
X294708Y122486D01*
Y122484D01*
X294707Y122481D01*
Y122476D01*
X294705Y122469D01*
X294704Y122459D01*
Y122447D01*
X294703Y122432D01*
Y122415D01*
Y122266D01*
X295135D01*
Y122136D01*
X294160D01*
Y122567D01*
Y122569D01*
Y122573D01*
Y122580D01*
Y122588D01*
X294161Y122600D01*
Y122612D01*
X294163Y122642D01*
X294167Y122673D01*
X294171Y122707D01*
X294178Y122738D01*
X294182Y122753D01*
X294187Y122766D01*
Y122767D01*
X294188Y122769D01*
X294192Y122777D01*
X294198Y122790D01*
X294208Y122806D01*
X294220Y122822D01*
X294237Y122841D01*
X294257Y122858D01*
X294280Y122875D01*
X294281D01*
X294282Y122876D01*
X294291Y122882D01*
X294305Y122887D01*
X294323Y122896D01*
X294344Y122903D01*
X294370Y122910D01*
X294397Y122914D01*
X294426Y122915D01*
X294436D01*
X294443Y122914D01*
X294453D01*
X294463Y122913D01*
X294487Y122907D01*
X294515Y122899D01*
X294545Y122887D01*
X294574Y122870D01*
X294588Y122859D01*
X294602Y122848D01*
X294604Y122846D01*
X294605Y122845D01*
X294609Y122841D01*
X294614Y122835D01*
X294619Y122828D01*
X294625Y122820D01*
X294632Y122808D01*
X294641Y122797D01*
X294648Y122783D01*
X294655Y122767D01*
X294663Y122751D01*
X294670Y122732D01*
X294676Y122711D01*
X294683Y122690D01*
X294687Y122666D01*
X294691Y122641D01*
X294693Y122643D01*
X294695Y122649D01*
X294701Y122657D01*
X294707Y122669D01*
X294722Y122694D01*
X294732Y122707D01*
X294741Y122718D01*
X294743Y122721D01*
X294750Y122728D01*
X294762Y122739D01*
X294776Y122753D01*
X294796Y122769D01*
X294817Y122787D01*
X294842Y122806D01*
X294870Y122825D01*
X295135Y122993D01*
Y122832D01*
D02*
G37*
G36*
X272380Y127482D02*
X272388Y127480D01*
X272400Y127475D01*
X272412Y127471D01*
X272428Y127466D01*
X272445Y127458D01*
X272463Y127450D01*
X272503Y127430D01*
X272542Y127405D01*
X272562Y127389D01*
X272582Y127374D01*
X272599Y127357D01*
X272615Y127337D01*
X272617Y127336D01*
X272620Y127333D01*
X272622Y127326D01*
X272628Y127319D01*
X272635Y127308D01*
X272642Y127296D01*
X272649Y127281D01*
X272656Y127265D01*
X272665Y127247D01*
X272672Y127227D01*
X272679Y127206D01*
X272686Y127184D01*
X272692Y127160D01*
X272694Y127134D01*
X272697Y127107D01*
X272699Y127079D01*
Y127078D01*
Y127072D01*
Y127064D01*
X272697Y127052D01*
Y127040D01*
X272696Y127024D01*
X272693Y127007D01*
X272690Y126988D01*
X272683Y126947D01*
X272672Y126904D01*
X272656Y126862D01*
X272646Y126842D01*
X272635Y126823D01*
X272634Y126821D01*
X272632Y126818D01*
X272628Y126813D01*
X272622Y126807D01*
X272617Y126799D01*
X272608Y126789D01*
X272599Y126778D01*
X272587Y126766D01*
X272575Y126755D01*
X272562Y126742D01*
X272529Y126717D01*
X272491Y126693D01*
X272449Y126672D01*
X272448D01*
X272443Y126669D01*
X272436Y126668D01*
X272428Y126663D01*
X272417Y126661D01*
X272403Y126656D01*
X272387Y126651D01*
X272370Y126646D01*
X272352Y126642D01*
X272331Y126637D01*
X272287Y126630D01*
X272238Y126624D01*
X272187Y126621D01*
X272171D01*
X272162Y126623D01*
X272147D01*
X272133Y126624D01*
X272115Y126625D01*
X272097Y126628D01*
X272056Y126635D01*
X272011Y126645D01*
X271966Y126659D01*
X271922Y126679D01*
X271920Y126680D01*
X271916Y126682D01*
X271911Y126685D01*
X271904Y126690D01*
X271894Y126696D01*
X271882Y126703D01*
X271857Y126721D01*
X271829Y126745D01*
X271801Y126773D01*
X271772Y126806D01*
X271748Y126844D01*
X271747Y126845D01*
X271746Y126849D01*
X271743Y126855D01*
X271739Y126862D01*
X271734Y126873D01*
X271730Y126885D01*
X271725Y126899D01*
X271719Y126914D01*
X271713Y126931D01*
X271708Y126950D01*
X271699Y126989D01*
X271692Y127034D01*
X271689Y127081D01*
Y127082D01*
Y127088D01*
Y127095D01*
X271691Y127105D01*
X271692Y127117D01*
X271694Y127133D01*
X271695Y127148D01*
X271699Y127167D01*
X271708Y127205D01*
X271720Y127247D01*
X271729Y127268D01*
X271739Y127288D01*
X271751Y127308D01*
X271764Y127327D01*
X271765Y127329D01*
X271767Y127332D01*
X271771Y127337D01*
X271778Y127344D01*
X271785Y127351D01*
X271795Y127361D01*
X271806Y127371D01*
X271818Y127382D01*
X271832Y127394D01*
X271849Y127405D01*
X271865Y127418D01*
X271884Y127429D01*
X271905Y127439D01*
X271926Y127450D01*
X271949Y127458D01*
X271974Y127467D01*
X272004Y127340D01*
X272002D01*
X271999Y127339D01*
X271994Y127336D01*
X271987Y127333D01*
X271978Y127330D01*
X271967Y127326D01*
X271944Y127315D01*
X271919Y127301D01*
X271894Y127284D01*
X271870Y127263D01*
X271849Y127240D01*
X271846Y127237D01*
X271840Y127229D01*
X271833Y127215D01*
X271823Y127196D01*
X271815Y127172D01*
X271806Y127146D01*
X271801Y127113D01*
X271799Y127078D01*
Y127076D01*
Y127072D01*
Y127067D01*
X271801Y127060D01*
Y127050D01*
X271802Y127038D01*
X271806Y127012D01*
X271812Y126982D01*
X271822Y126951D01*
X271836Y126919D01*
X271854Y126889D01*
Y126888D01*
X271857Y126886D01*
X271864Y126876D01*
X271875Y126864D01*
X271892Y126848D01*
X271913Y126830D01*
X271937Y126813D01*
X271967Y126797D01*
X271999Y126783D01*
X272001D01*
X272004Y126782D01*
X272008Y126780D01*
X272015Y126779D01*
X272023Y126776D01*
X272033Y126773D01*
X272057Y126769D01*
X272085Y126763D01*
X272116Y126758D01*
X272150Y126755D01*
X272187Y126754D01*
X272208D01*
X272218Y126755D01*
X272231D01*
X272245Y126756D01*
X272260Y126758D01*
X272294Y126762D01*
X272331Y126769D01*
X272367Y126778D01*
X272404Y126789D01*
X272405D01*
X272408Y126790D01*
X272412Y126793D01*
X272419Y126796D01*
X272436Y126804D01*
X272456Y126817D01*
X272479Y126833D01*
X272503Y126852D01*
X272524Y126875D01*
X272544Y126902D01*
Y126903D01*
X272545Y126906D01*
X272548Y126910D01*
X272551Y126916D01*
X272553Y126923D01*
X272558Y126931D01*
X272566Y126951D01*
X272575Y126976D01*
X272582Y127005D01*
X272587Y127036D01*
X272589Y127068D01*
Y127069D01*
Y127072D01*
Y127078D01*
X272587Y127086D01*
Y127096D01*
X272586Y127106D01*
X272580Y127131D01*
X272573Y127161D01*
X272562Y127191D01*
X272546Y127222D01*
X272538Y127237D01*
X272527Y127251D01*
X272525Y127253D01*
X272524Y127254D01*
X272520Y127258D01*
X272515Y127264D01*
X272508Y127270D01*
X272500Y127277D01*
X272491Y127285D01*
X272480Y127292D01*
X272467Y127301D01*
X272453Y127310D01*
X272439Y127319D01*
X272422Y127327D01*
X272404Y127334D01*
X272384Y127341D01*
X272363Y127349D01*
X272341Y127354D01*
X272373Y127484D01*
X272374D01*
X272380Y127482D01*
D02*
G37*
G36*
X272218Y128448D02*
X272229D01*
X272256Y128447D01*
X272287Y128442D01*
X272319Y128438D01*
X272353Y128431D01*
X272387Y128423D01*
X272388D01*
X272391Y128421D01*
X272396Y128420D01*
X272401Y128418D01*
X272417Y128413D01*
X272436Y128404D01*
X272459Y128396D01*
X272482Y128385D01*
X272505Y128371D01*
X272528Y128356D01*
X272531Y128355D01*
X272538Y128349D01*
X272548Y128341D01*
X272560Y128330D01*
X272575Y128317D01*
X272589Y128301D01*
X272604Y128286D01*
X272617Y128268D01*
X272618Y128265D01*
X272622Y128259D01*
X272628Y128249D01*
X272635Y128235D01*
X272644Y128218D01*
X272651Y128199D01*
X272659Y128176D01*
X272666Y128151D01*
Y128149D01*
Y128148D01*
X272668Y128144D01*
X272669Y128139D01*
X272670Y128125D01*
X272673Y128106D01*
X272676Y128083D01*
X272679Y128056D01*
X272680Y128027D01*
X272682Y127994D01*
Y127643D01*
X271706D01*
Y127979D01*
Y127980D01*
Y127984D01*
Y127990D01*
Y127997D01*
Y128007D01*
Y128018D01*
X271708Y128043D01*
X271709Y128072D01*
X271712Y128100D01*
X271716Y128128D01*
X271720Y128152D01*
Y128153D01*
X271722Y128156D01*
Y128160D01*
X271725Y128166D01*
X271729Y128182D01*
X271736Y128201D01*
X271746Y128224D01*
X271758Y128248D01*
X271772Y128272D01*
X271791Y128294D01*
X271792Y128296D01*
X271794Y128297D01*
X271798Y128301D01*
X271802Y128307D01*
X271816Y128321D01*
X271836Y128338D01*
X271860Y128356D01*
X271888Y128376D01*
X271920Y128395D01*
X271957Y128410D01*
X271959D01*
X271961Y128411D01*
X271967Y128414D01*
X271975Y128416D01*
X271985Y128420D01*
X271997Y128423D01*
X272009Y128426D01*
X272025Y128430D01*
X272040Y128434D01*
X272059Y128437D01*
X272098Y128444D01*
X272142Y128448D01*
X272190Y128449D01*
X272208D01*
X272218Y128448D01*
D02*
G37*
G36*
X294869Y123708D02*
X294880Y123706D01*
X294893Y123703D01*
X294907Y123701D01*
X294922Y123698D01*
X294956Y123687D01*
X294975Y123678D01*
X294992Y123670D01*
X295010Y123658D01*
X295028Y123646D01*
X295046Y123632D01*
X295063Y123615D01*
X295065Y123613D01*
X295068Y123610D01*
X295072Y123605D01*
X295078Y123598D01*
X295085Y123589D01*
X295092Y123578D01*
X295100Y123565D01*
X295107Y123550D01*
X295116Y123534D01*
X295124Y123516D01*
X295131Y123498D01*
X295138Y123477D01*
X295144Y123454D01*
X295148Y123430D01*
X295151Y123406D01*
X295152Y123379D01*
Y123378D01*
Y123374D01*
Y123367D01*
X295151Y123358D01*
X295149Y123347D01*
X295148Y123334D01*
X295145Y123320D01*
X295142Y123305D01*
X295134Y123271D01*
X295120Y123235D01*
X295111Y123217D01*
X295101Y123200D01*
X295089Y123183D01*
X295076Y123166D01*
X295075Y123165D01*
X295072Y123162D01*
X295068Y123158D01*
X295062Y123154D01*
X295055Y123147D01*
X295045Y123140D01*
X295035Y123131D01*
X295023Y123123D01*
X295008Y123114D01*
X294994Y123106D01*
X294961Y123090D01*
X294921Y123078D01*
X294900Y123073D01*
X294877Y123071D01*
X294862Y123190D01*
X294863D01*
X294866Y123192D01*
X294872Y123193D01*
X294879Y123195D01*
X294887Y123196D01*
X294897Y123199D01*
X294918Y123206D01*
X294944Y123216D01*
X294968Y123228D01*
X294990Y123243D01*
X295010Y123259D01*
X295011Y123262D01*
X295017Y123268D01*
X295024Y123279D01*
X295031Y123293D01*
X295039Y123310D01*
X295046Y123331D01*
X295052Y123355D01*
X295054Y123381D01*
Y123382D01*
Y123385D01*
Y123389D01*
X295052Y123395D01*
X295051Y123410D01*
X295046Y123430D01*
X295039Y123453D01*
X295030Y123477D01*
X295015Y123500D01*
X294996Y123523D01*
X294993Y123526D01*
X294984Y123533D01*
X294972Y123541D01*
X294955Y123553D01*
X294934Y123564D01*
X294910Y123572D01*
X294882Y123579D01*
X294851Y123582D01*
X294842D01*
X294836Y123581D01*
X294821Y123579D01*
X294803Y123575D01*
X294780Y123570D01*
X294758Y123560D01*
X294735Y123546D01*
X294714Y123527D01*
X294711Y123524D01*
X294705Y123517D01*
X294697Y123506D01*
X294687Y123491D01*
X294677Y123471D01*
X294669Y123447D01*
X294663Y123420D01*
X294660Y123391D01*
Y123389D01*
Y123385D01*
Y123378D01*
X294662Y123368D01*
X294663Y123355D01*
X294666Y123341D01*
X294669Y123324D01*
X294673Y123306D01*
X294567Y123320D01*
Y123321D01*
Y123327D01*
X294569Y123333D01*
Y123338D01*
Y123340D01*
Y123341D01*
Y123345D01*
Y123351D01*
X294566Y123367D01*
X294563Y123385D01*
X294559Y123406D01*
X294552Y123430D01*
X294542Y123453D01*
X294529Y123477D01*
Y123478D01*
X294528Y123479D01*
X294522Y123486D01*
X294512Y123496D01*
X294500Y123508D01*
X294481Y123519D01*
X294460Y123529D01*
X294436Y123536D01*
X294422Y123539D01*
X294395D01*
X294384Y123536D01*
X294368Y123533D01*
X294352Y123527D01*
X294333Y123520D01*
X294315Y123509D01*
X294298Y123493D01*
X294297Y123492D01*
X294291Y123485D01*
X294284Y123475D01*
X294275Y123462D01*
X294268Y123446D01*
X294261Y123426D01*
X294256Y123403D01*
X294254Y123378D01*
Y123376D01*
Y123375D01*
Y123367D01*
X294257Y123354D01*
X294260Y123337D01*
X294266Y123319D01*
X294273Y123300D01*
X294284Y123281D01*
X294298Y123262D01*
X294299Y123261D01*
X294306Y123255D01*
X294316Y123247D01*
X294330Y123237D01*
X294349Y123227D01*
X294371Y123217D01*
X294398Y123209D01*
X294429Y123203D01*
X294408Y123083D01*
X294406D01*
X294402Y123085D01*
X294397Y123086D01*
X294388Y123087D01*
X294378Y123090D01*
X294367Y123094D01*
X294340Y123103D01*
X294309Y123117D01*
X294278Y123134D01*
X294249Y123155D01*
X294222Y123182D01*
X294220Y123183D01*
X294219Y123186D01*
X294216Y123190D01*
X294212Y123196D01*
X294206Y123203D01*
X294201Y123213D01*
X294195Y123223D01*
X294188Y123235D01*
X294177Y123264D01*
X294165Y123296D01*
X294158Y123334D01*
X294156Y123354D01*
Y123375D01*
Y123376D01*
Y123379D01*
Y123383D01*
Y123389D01*
X294157Y123405D01*
X294160Y123423D01*
X294164Y123446D01*
X294171Y123471D01*
X294180Y123496D01*
X294191Y123522D01*
Y123523D01*
X294192Y123524D01*
X294196Y123533D01*
X294205Y123546D01*
X294215Y123560D01*
X294229Y123577D01*
X294244Y123594D01*
X294263Y123610D01*
X294284Y123625D01*
X294287Y123626D01*
X294294Y123630D01*
X294306Y123636D01*
X294322Y123643D01*
X294340Y123650D01*
X294361Y123656D01*
X294385Y123660D01*
X294409Y123661D01*
X294421D01*
X294432Y123660D01*
X294447Y123657D01*
X294466Y123653D01*
X294485Y123646D01*
X294505Y123637D01*
X294525Y123626D01*
X294528Y123625D01*
X294533Y123620D01*
X294543Y123612D01*
X294555Y123601D01*
X294567Y123586D01*
X294581Y123570D01*
X294594Y123550D01*
X294607Y123526D01*
Y123527D01*
X294608Y123530D01*
X294609Y123534D01*
X294611Y123540D01*
X294617Y123555D01*
X294625Y123575D01*
X294636Y123598D01*
X294650Y123620D01*
X294669Y123641D01*
X294690Y123661D01*
X294693Y123663D01*
X294701Y123668D01*
X294715Y123677D01*
X294734Y123685D01*
X294756Y123694D01*
X294783Y123702D01*
X294814Y123708D01*
X294848Y123709D01*
X294860D01*
X294869Y123708D01*
D02*
G37*
G36*
X272682Y125895D02*
X271706D01*
Y126025D01*
X272566D01*
Y126506D01*
X272682D01*
Y125895D01*
D02*
G37*
G36*
X313706Y106172D02*
X313586D01*
Y106935D01*
X313584Y106933D01*
X313577Y106928D01*
X313569Y106919D01*
X313555Y106909D01*
X313539Y106897D01*
X313520Y106882D01*
X313497Y106867D01*
X313472Y106851D01*
X313470D01*
X313469Y106850D01*
X313460Y106844D01*
X313446Y106837D01*
X313429Y106829D01*
X313410Y106819D01*
X313388Y106809D01*
X313367Y106799D01*
X313346Y106791D01*
Y106906D01*
X313348D01*
X313350Y106909D01*
X313356Y106911D01*
X313363Y106915D01*
X313372Y106919D01*
X313381Y106925D01*
X313405Y106939D01*
X313434Y106954D01*
X313462Y106974D01*
X313491Y106997D01*
X313521Y107021D01*
X313522Y107022D01*
X313524Y107023D01*
X313528Y107028D01*
X313534Y107032D01*
X313546Y107046D01*
X313563Y107063D01*
X313580Y107083D01*
X313598Y107105D01*
X313614Y107128D01*
X313628Y107152D01*
X313706D01*
Y106172D01*
D02*
G37*
G36*
X312816Y107146D02*
X312840Y107145D01*
X312865Y107143D01*
X312889Y107140D01*
X312911Y107138D01*
X312913D01*
X312923Y107135D01*
X312936Y107132D01*
X312953Y107128D01*
X312971Y107121D01*
X312991Y107112D01*
X313012Y107102D01*
X313030Y107091D01*
X313033Y107090D01*
X313039Y107085D01*
X313047Y107077D01*
X313059Y107067D01*
X313071Y107054D01*
X313084Y107038D01*
X313098Y107019D01*
X313109Y106998D01*
X313111Y106995D01*
X313114Y106988D01*
X313119Y106976D01*
X313125Y106959D01*
X313129Y106939D01*
X313135Y106916D01*
X313138Y106891D01*
X313139Y106864D01*
Y106863D01*
Y106859D01*
Y106853D01*
X313138Y106843D01*
X313136Y106833D01*
X313135Y106820D01*
X313132Y106806D01*
X313129Y106791D01*
X313119Y106758D01*
X313114Y106742D01*
X313105Y106723D01*
X313095Y106705D01*
X313085Y106688D01*
X313073Y106671D01*
X313059Y106654D01*
X313057Y106653D01*
X313054Y106650D01*
X313050Y106646D01*
X313043Y106641D01*
X313035Y106634D01*
X313023Y106627D01*
X313009Y106619D01*
X312994Y106612D01*
X312975Y106603D01*
X312954Y106595D01*
X312932Y106588D01*
X312905Y106582D01*
X312877Y106577D01*
X312846Y106572D01*
X312810Y106570D01*
X312774Y106568D01*
X312524D01*
Y106172D01*
X312395D01*
Y107148D01*
X312795D01*
X312816Y107146D01*
D02*
G37*
G36*
X306376Y113538D02*
X306388Y113537D01*
X306404Y113536D01*
X306419Y113534D01*
X306438Y113530D01*
X306476Y113521D01*
X306518Y113509D01*
X306539Y113500D01*
X306559Y113490D01*
X306579Y113478D01*
X306598Y113465D01*
X306600Y113464D01*
X306603Y113462D01*
X306608Y113458D01*
X306615Y113451D01*
X306622Y113444D01*
X306632Y113434D01*
X306642Y113423D01*
X306653Y113412D01*
X306665Y113397D01*
X306676Y113381D01*
X306689Y113364D01*
X306700Y113345D01*
X306710Y113324D01*
X306721Y113303D01*
X306730Y113280D01*
X306738Y113255D01*
X306611Y113225D01*
Y113227D01*
X306610Y113230D01*
X306607Y113235D01*
X306604Y113242D01*
X306601Y113251D01*
X306597Y113262D01*
X306586Y113285D01*
X306572Y113310D01*
X306555Y113335D01*
X306534Y113359D01*
X306511Y113381D01*
X306508Y113383D01*
X306500Y113389D01*
X306486Y113396D01*
X306467Y113406D01*
X306443Y113414D01*
X306417Y113423D01*
X306384Y113428D01*
X306349Y113430D01*
X306338D01*
X306331Y113428D01*
X306321D01*
X306309Y113427D01*
X306283Y113423D01*
X306253Y113417D01*
X306222Y113407D01*
X306190Y113393D01*
X306160Y113375D01*
X306159D01*
X306157Y113372D01*
X306147Y113365D01*
X306135Y113354D01*
X306119Y113337D01*
X306101Y113316D01*
X306084Y113292D01*
X306068Y113262D01*
X306054Y113230D01*
Y113228D01*
X306053Y113225D01*
X306052Y113221D01*
X306050Y113214D01*
X306047Y113206D01*
X306044Y113196D01*
X306040Y113172D01*
X306035Y113144D01*
X306029Y113113D01*
X306026Y113079D01*
X306025Y113042D01*
Y113041D01*
Y113037D01*
Y113030D01*
Y113021D01*
X306026Y113011D01*
Y112998D01*
X306028Y112984D01*
X306029Y112969D01*
X306033Y112935D01*
X306040Y112898D01*
X306049Y112862D01*
X306060Y112825D01*
Y112824D01*
X306061Y112821D01*
X306064Y112817D01*
X306067Y112810D01*
X306075Y112793D01*
X306088Y112773D01*
X306104Y112750D01*
X306123Y112726D01*
X306146Y112705D01*
X306173Y112686D01*
X306174D01*
X306177Y112684D01*
X306181Y112681D01*
X306187Y112678D01*
X306194Y112676D01*
X306202Y112671D01*
X306222Y112663D01*
X306247Y112655D01*
X306276Y112647D01*
X306307Y112642D01*
X306339Y112640D01*
X306349D01*
X306357Y112642D01*
X306367D01*
X306377Y112643D01*
X306402Y112649D01*
X306432Y112656D01*
X306462Y112667D01*
X306493Y112683D01*
X306508Y112691D01*
X306522Y112702D01*
X306524Y112704D01*
X306525Y112705D01*
X306529Y112710D01*
X306535Y112714D01*
X306541Y112721D01*
X306548Y112729D01*
X306556Y112738D01*
X306563Y112749D01*
X306572Y112762D01*
X306582Y112776D01*
X306590Y112790D01*
X306598Y112807D01*
X306605Y112825D01*
X306613Y112845D01*
X306620Y112866D01*
X306625Y112889D01*
X306755Y112856D01*
Y112855D01*
X306754Y112849D01*
X306751Y112841D01*
X306746Y112829D01*
X306742Y112817D01*
X306737Y112801D01*
X306730Y112784D01*
X306721Y112766D01*
X306701Y112726D01*
X306676Y112687D01*
X306660Y112667D01*
X306645Y112647D01*
X306628Y112631D01*
X306608Y112614D01*
X306607Y112612D01*
X306604Y112609D01*
X306597Y112607D01*
X306590Y112601D01*
X306579Y112594D01*
X306567Y112587D01*
X306552Y112580D01*
X306536Y112573D01*
X306518Y112564D01*
X306498Y112557D01*
X306477Y112550D01*
X306455Y112543D01*
X306431Y112538D01*
X306405Y112535D01*
X306379Y112532D01*
X306350Y112530D01*
X306335D01*
X306324Y112532D01*
X306311D01*
X306295Y112533D01*
X306278Y112536D01*
X306259Y112539D01*
X306218Y112546D01*
X306176Y112557D01*
X306133Y112573D01*
X306114Y112583D01*
X306094Y112594D01*
X306092Y112595D01*
X306090Y112597D01*
X306084Y112601D01*
X306078Y112607D01*
X306070Y112612D01*
X306060Y112621D01*
X306049Y112631D01*
X306037Y112642D01*
X306026Y112655D01*
X306013Y112667D01*
X305988Y112700D01*
X305964Y112738D01*
X305943Y112780D01*
Y112781D01*
X305940Y112786D01*
X305939Y112793D01*
X305934Y112801D01*
X305932Y112812D01*
X305927Y112827D01*
X305922Y112842D01*
X305918Y112859D01*
X305913Y112877D01*
X305908Y112898D01*
X305901Y112942D01*
X305895Y112991D01*
X305892Y113042D01*
Y113044D01*
Y113049D01*
Y113058D01*
X305894Y113068D01*
Y113082D01*
X305895Y113096D01*
X305896Y113114D01*
X305899Y113132D01*
X305906Y113173D01*
X305916Y113218D01*
X305930Y113264D01*
X305950Y113307D01*
X305951Y113309D01*
X305953Y113313D01*
X305956Y113319D01*
X305961Y113326D01*
X305967Y113335D01*
X305974Y113347D01*
X305992Y113372D01*
X306016Y113400D01*
X306044Y113428D01*
X306077Y113457D01*
X306115Y113481D01*
X306116Y113482D01*
X306121Y113483D01*
X306126Y113486D01*
X306133Y113490D01*
X306145Y113495D01*
X306156Y113499D01*
X306170Y113505D01*
X306185Y113510D01*
X306202Y113516D01*
X306221Y113521D01*
X306260Y113530D01*
X306305Y113537D01*
X306352Y113540D01*
X306366D01*
X306376Y113538D01*
D02*
G37*
G36*
X315070Y93777D02*
X314950D01*
Y94539D01*
X314949Y94538D01*
X314942Y94532D01*
X314933Y94524D01*
X314919Y94514D01*
X314904Y94501D01*
X314884Y94487D01*
X314861Y94472D01*
X314836Y94456D01*
X314835D01*
X314833Y94455D01*
X314825Y94449D01*
X314811Y94442D01*
X314794Y94434D01*
X314774Y94424D01*
X314753Y94414D01*
X314732Y94404D01*
X314711Y94396D01*
Y94511D01*
X314712D01*
X314715Y94514D01*
X314721Y94515D01*
X314728Y94520D01*
X314736Y94524D01*
X314746Y94530D01*
X314770Y94544D01*
X314798Y94559D01*
X314826Y94579D01*
X314856Y94601D01*
X314885Y94625D01*
X314887Y94627D01*
X314888Y94628D01*
X314892Y94632D01*
X314898Y94637D01*
X314911Y94651D01*
X314928Y94668D01*
X314945Y94687D01*
X314963Y94710D01*
X314978Y94733D01*
X314993Y94757D01*
X315070D01*
Y93777D01*
D02*
G37*
G36*
X360478Y166205D02*
X360497Y166203D01*
X360519Y166198D01*
X360545Y166191D01*
X360570Y166183D01*
X360595Y166171D01*
X360597D01*
X360598Y166170D01*
X360607Y166166D01*
X360619Y166157D01*
X360633Y166148D01*
X360650Y166133D01*
X360667Y166118D01*
X360684Y166100D01*
X360698Y166078D01*
X360700Y166076D01*
X360704Y166069D01*
X360710Y166056D01*
X360717Y166040D01*
X360724Y166022D01*
X360729Y166001D01*
X360734Y165977D01*
X360735Y165953D01*
Y165950D01*
Y165942D01*
X360734Y165930D01*
X360731Y165915D01*
X360727Y165897D01*
X360719Y165877D01*
X360711Y165857D01*
X360700Y165837D01*
X360698Y165835D01*
X360694Y165829D01*
X360686Y165819D01*
X360674Y165808D01*
X360660Y165795D01*
X360643Y165781D01*
X360624Y165768D01*
X360600Y165756D01*
X360601D01*
X360604Y165754D01*
X360608Y165753D01*
X360614Y165751D01*
X360629Y165746D01*
X360649Y165737D01*
X360672Y165726D01*
X360694Y165712D01*
X360715Y165694D01*
X360735Y165672D01*
X360736Y165670D01*
X360742Y165661D01*
X360750Y165647D01*
X360759Y165629D01*
X360767Y165606D01*
X360776Y165579D01*
X360782Y165548D01*
X360783Y165515D01*
Y165513D01*
Y165509D01*
Y165502D01*
X360782Y165493D01*
X360780Y165482D01*
X360777Y165469D01*
X360774Y165455D01*
X360772Y165440D01*
X360760Y165406D01*
X360752Y165388D01*
X360743Y165371D01*
X360732Y165352D01*
X360719Y165334D01*
X360705Y165316D01*
X360688Y165299D01*
X360687Y165297D01*
X360684Y165295D01*
X360679Y165290D01*
X360672Y165285D01*
X360663Y165278D01*
X360652Y165271D01*
X360639Y165262D01*
X360624Y165255D01*
X360608Y165247D01*
X360590Y165238D01*
X360571Y165231D01*
X360550Y165224D01*
X360528Y165219D01*
X360504Y165214D01*
X360480Y165211D01*
X360453Y165210D01*
X360440D01*
X360432Y165211D01*
X360421Y165213D01*
X360408Y165214D01*
X360394Y165217D01*
X360378Y165220D01*
X360345Y165228D01*
X360309Y165243D01*
X360291Y165251D01*
X360274Y165261D01*
X360257Y165274D01*
X360240Y165286D01*
X360239Y165288D01*
X360236Y165290D01*
X360232Y165295D01*
X360228Y165300D01*
X360220Y165307D01*
X360213Y165317D01*
X360205Y165327D01*
X360197Y165340D01*
X360188Y165354D01*
X360180Y165368D01*
X360164Y165402D01*
X360151Y165441D01*
X360147Y165462D01*
X360144Y165485D01*
X360264Y165500D01*
Y165499D01*
X360266Y165496D01*
X360267Y165491D01*
X360268Y165484D01*
X360270Y165475D01*
X360273Y165465D01*
X360280Y165444D01*
X360290Y165419D01*
X360302Y165395D01*
X360316Y165372D01*
X360333Y165352D01*
X360336Y165351D01*
X360342Y165345D01*
X360353Y165338D01*
X360367Y165331D01*
X360384Y165323D01*
X360405Y165316D01*
X360429Y165310D01*
X360454Y165309D01*
X360463D01*
X360469Y165310D01*
X360484Y165312D01*
X360504Y165316D01*
X360526Y165323D01*
X360550Y165333D01*
X360574Y165347D01*
X360597Y165367D01*
X360600Y165369D01*
X360607Y165378D01*
X360615Y165391D01*
X360626Y165407D01*
X360638Y165429D01*
X360646Y165453D01*
X360653Y165481D01*
X360656Y165512D01*
Y165513D01*
Y165516D01*
Y165520D01*
X360655Y165526D01*
X360653Y165541D01*
X360649Y165560D01*
X360643Y165582D01*
X360633Y165605D01*
X360619Y165627D01*
X360601Y165648D01*
X360598Y165651D01*
X360591Y165657D01*
X360580Y165665D01*
X360564Y165675D01*
X360545Y165685D01*
X360521Y165694D01*
X360494Y165699D01*
X360464Y165702D01*
X360452D01*
X360442Y165701D01*
X360429Y165699D01*
X360415Y165696D01*
X360398Y165694D01*
X360380Y165689D01*
X360394Y165795D01*
X360401D01*
X360407Y165794D01*
X360425D01*
X360440Y165797D01*
X360459Y165799D01*
X360480Y165804D01*
X360504Y165811D01*
X360526Y165820D01*
X360550Y165833D01*
X360552D01*
X360553Y165835D01*
X360560Y165840D01*
X360570Y165850D01*
X360581Y165863D01*
X360593Y165881D01*
X360602Y165902D01*
X360610Y165926D01*
X360612Y165940D01*
Y165956D01*
Y165957D01*
Y165959D01*
Y165967D01*
X360610Y165978D01*
X360607Y165994D01*
X360601Y166011D01*
X360594Y166029D01*
X360583Y166047D01*
X360567Y166064D01*
X360566Y166066D01*
X360559Y166071D01*
X360549Y166078D01*
X360536Y166087D01*
X360519Y166094D01*
X360500Y166101D01*
X360477Y166107D01*
X360452Y166108D01*
X360440D01*
X360428Y166105D01*
X360411Y166102D01*
X360392Y166097D01*
X360374Y166090D01*
X360354Y166078D01*
X360336Y166064D01*
X360335Y166063D01*
X360329Y166056D01*
X360321Y166046D01*
X360311Y166032D01*
X360301Y166014D01*
X360291Y165991D01*
X360282Y165964D01*
X360277Y165933D01*
X360157Y165954D01*
Y165956D01*
X360158Y165960D01*
X360160Y165966D01*
X360161Y165974D01*
X360164Y165984D01*
X360168Y165995D01*
X360177Y166022D01*
X360191Y166053D01*
X360208Y166084D01*
X360229Y166114D01*
X360256Y166140D01*
X360257Y166142D01*
X360260Y166143D01*
X360264Y166146D01*
X360270Y166150D01*
X360277Y166156D01*
X360287Y166162D01*
X360297Y166167D01*
X360309Y166174D01*
X360337Y166186D01*
X360370Y166197D01*
X360408Y166204D01*
X360428Y166207D01*
X360463D01*
X360478Y166205D01*
D02*
G37*
G36*
X359704Y166201D02*
X359728Y166200D01*
X359754Y166198D01*
X359778Y166195D01*
X359799Y166193D01*
X359802D01*
X359812Y166190D01*
X359824Y166187D01*
X359841Y166183D01*
X359860Y166176D01*
X359879Y166167D01*
X359900Y166157D01*
X359919Y166146D01*
X359922Y166145D01*
X359927Y166140D01*
X359936Y166132D01*
X359947Y166122D01*
X359960Y166109D01*
X359972Y166093D01*
X359986Y166074D01*
X359998Y166053D01*
X359999Y166050D01*
X360002Y166043D01*
X360008Y166031D01*
X360013Y166014D01*
X360017Y165994D01*
X360023Y165971D01*
X360026Y165946D01*
X360027Y165919D01*
Y165918D01*
Y165914D01*
Y165908D01*
X360026Y165898D01*
X360025Y165888D01*
X360023Y165875D01*
X360020Y165861D01*
X360017Y165846D01*
X360008Y165813D01*
X360002Y165797D01*
X359993Y165778D01*
X359984Y165760D01*
X359974Y165743D01*
X359961Y165726D01*
X359947Y165709D01*
X359946Y165708D01*
X359943Y165705D01*
X359939Y165701D01*
X359931Y165696D01*
X359923Y165689D01*
X359912Y165682D01*
X359898Y165674D01*
X359882Y165667D01*
X359864Y165658D01*
X359843Y165650D01*
X359820Y165643D01*
X359793Y165637D01*
X359765Y165632D01*
X359734Y165627D01*
X359699Y165625D01*
X359662Y165623D01*
X359413D01*
Y165227D01*
X359283D01*
Y166203D01*
X359683D01*
X359704Y166201D01*
D02*
G37*
G36*
X314123Y94768D02*
X314133D01*
X314159Y94765D01*
X314189Y94761D01*
X314220Y94754D01*
X314254Y94745D01*
X314285Y94734D01*
X314286D01*
X314289Y94733D01*
X314293Y94730D01*
X314299Y94727D01*
X314313Y94720D01*
X314331Y94707D01*
X314353Y94693D01*
X314374Y94675D01*
X314393Y94654D01*
X314412Y94630D01*
Y94628D01*
X314413Y94627D01*
X314416Y94623D01*
X314419Y94618D01*
X314426Y94604D01*
X314434Y94586D01*
X314444Y94563D01*
X314451Y94537D01*
X314458Y94508D01*
X314461Y94477D01*
X314337Y94468D01*
Y94469D01*
Y94472D01*
X314336Y94476D01*
X314334Y94483D01*
X314330Y94499D01*
X314324Y94520D01*
X314316Y94542D01*
X314303Y94565D01*
X314288Y94586D01*
X314268Y94606D01*
X314265Y94607D01*
X314258Y94613D01*
X314244Y94621D01*
X314226Y94630D01*
X314202Y94638D01*
X314174Y94647D01*
X314138Y94652D01*
X314099Y94654D01*
X314079D01*
X314071Y94652D01*
X314059Y94651D01*
X314034Y94648D01*
X314006Y94642D01*
X313978Y94635D01*
X313951Y94624D01*
X313940Y94617D01*
X313928Y94610D01*
X313925Y94609D01*
X313920Y94603D01*
X313911Y94593D01*
X313903Y94582D01*
X313893Y94566D01*
X313885Y94549D01*
X313879Y94530D01*
X313876Y94507D01*
Y94504D01*
Y94499D01*
X313878Y94489D01*
X313880Y94477D01*
X313885Y94463D01*
X313892Y94449D01*
X313900Y94435D01*
X313913Y94421D01*
X313914Y94420D01*
X313921Y94415D01*
X313927Y94411D01*
X313932Y94408D01*
X313941Y94404D01*
X313951Y94398D01*
X313964Y94394D01*
X313978Y94389D01*
X313993Y94383D01*
X314011Y94376D01*
X314031Y94370D01*
X314054Y94363D01*
X314079Y94358D01*
X314107Y94351D01*
X314109D01*
X314114Y94349D01*
X314123Y94348D01*
X314133Y94345D01*
X314145Y94342D01*
X314161Y94338D01*
X314176Y94334D01*
X314193Y94329D01*
X314230Y94320D01*
X314265Y94310D01*
X314282Y94304D01*
X314298Y94298D01*
X314312Y94294D01*
X314323Y94289D01*
X314324D01*
X314327Y94287D01*
X314331Y94284D01*
X314337Y94281D01*
X314353Y94273D01*
X314371Y94262D01*
X314392Y94246D01*
X314413Y94229D01*
X314433Y94210D01*
X314450Y94188D01*
X314451Y94186D01*
X314457Y94179D01*
X314463Y94166D01*
X314471Y94149D01*
X314478Y94129D01*
X314485Y94105D01*
X314489Y94078D01*
X314491Y94050D01*
Y94049D01*
Y94047D01*
Y94043D01*
Y94038D01*
X314488Y94022D01*
X314485Y94002D01*
X314479Y93980D01*
X314472Y93956D01*
X314461Y93930D01*
X314446Y93904D01*
Y93902D01*
X314444Y93901D01*
X314437Y93892D01*
X314427Y93880D01*
X314413Y93866D01*
X314395Y93849D01*
X314372Y93830D01*
X314347Y93813D01*
X314317Y93798D01*
X314316D01*
X314313Y93797D01*
X314309Y93795D01*
X314303Y93792D01*
X314295Y93789D01*
X314285Y93785D01*
X314262Y93780D01*
X314236Y93773D01*
X314203Y93766D01*
X314168Y93761D01*
X314130Y93760D01*
X314107D01*
X314096Y93761D01*
X314083D01*
X314069Y93763D01*
X314052Y93764D01*
X314017Y93770D01*
X313980Y93775D01*
X313944Y93785D01*
X313909Y93798D01*
X313907D01*
X313904Y93799D01*
X313900Y93802D01*
X313894Y93805D01*
X313878Y93813D01*
X313858Y93826D01*
X313835Y93843D01*
X313811Y93863D01*
X313789Y93887D01*
X313768Y93914D01*
Y93915D01*
X313765Y93918D01*
X313763Y93922D01*
X313759Y93928D01*
X313756Y93935D01*
X313752Y93943D01*
X313742Y93964D01*
X313732Y93991D01*
X313724Y94021D01*
X313718Y94055D01*
X313715Y94090D01*
X313837Y94101D01*
Y94100D01*
Y94098D01*
X313838Y94094D01*
Y94088D01*
X313841Y94076D01*
X313845Y94057D01*
X313851Y94039D01*
X313856Y94018D01*
X313866Y93998D01*
X313876Y93980D01*
X313878Y93978D01*
X313882Y93973D01*
X313889Y93963D01*
X313900Y93953D01*
X313914Y93940D01*
X313930Y93928D01*
X313951Y93915D01*
X313973Y93904D01*
X313975D01*
X313976Y93902D01*
X313980Y93901D01*
X313985Y93899D01*
X313999Y93895D01*
X314017Y93890D01*
X314040Y93884D01*
X314065Y93880D01*
X314093Y93877D01*
X314124Y93875D01*
X314137D01*
X314151Y93877D01*
X314168Y93878D01*
X314188Y93881D01*
X314210Y93884D01*
X314233Y93890D01*
X314254Y93897D01*
X314257Y93898D01*
X314264Y93901D01*
X314274Y93906D01*
X314286Y93912D01*
X314299Y93922D01*
X314313Y93932D01*
X314327Y93943D01*
X314339Y93957D01*
X314340Y93959D01*
X314343Y93964D01*
X314347Y93971D01*
X314353Y93983D01*
X314358Y93994D01*
X314362Y94008D01*
X314365Y94023D01*
X314367Y94040D01*
Y94042D01*
Y94049D01*
X314365Y94057D01*
X314364Y94069D01*
X314360Y94080D01*
X314355Y94094D01*
X314348Y94108D01*
X314339Y94121D01*
X314337Y94122D01*
X314333Y94126D01*
X314327Y94132D01*
X314317Y94141D01*
X314306Y94149D01*
X314291Y94159D01*
X314272Y94169D01*
X314251Y94177D01*
X314250Y94179D01*
X314243Y94180D01*
X314231Y94184D01*
X314224Y94186D01*
X314214Y94188D01*
X314205Y94193D01*
X314192Y94195D01*
X314178Y94200D01*
X314161Y94204D01*
X314144Y94208D01*
X314124Y94214D01*
X314102Y94219D01*
X314078Y94225D01*
X314076D01*
X314072Y94226D01*
X314065Y94228D01*
X314057Y94231D01*
X314045Y94234D01*
X314033Y94236D01*
X314004Y94245D01*
X313973Y94255D01*
X313941Y94265D01*
X313913Y94274D01*
X313900Y94280D01*
X313889Y94286D01*
X313887D01*
X313886Y94287D01*
X313878Y94293D01*
X313865Y94300D01*
X313851Y94311D01*
X313834Y94324D01*
X313817Y94339D01*
X313800Y94358D01*
X313786Y94377D01*
X313784Y94380D01*
X313780Y94387D01*
X313775Y94398D01*
X313769Y94413D01*
X313763Y94431D01*
X313758Y94452D01*
X313753Y94475D01*
X313752Y94499D01*
Y94500D01*
Y94501D01*
Y94506D01*
Y94511D01*
X313755Y94525D01*
X313758Y94544D01*
X313762Y94565D01*
X313769Y94589D01*
X313779Y94613D01*
X313793Y94637D01*
Y94638D01*
X313794Y94640D01*
X313801Y94648D01*
X313811Y94659D01*
X313824Y94673D01*
X313841Y94689D01*
X313862Y94706D01*
X313887Y94721D01*
X313916Y94735D01*
X313917D01*
X313920Y94737D01*
X313924Y94738D01*
X313930Y94741D01*
X313937Y94744D01*
X313947Y94747D01*
X313968Y94752D01*
X313995Y94758D01*
X314026Y94764D01*
X314058Y94768D01*
X314095Y94769D01*
X314113D01*
X314123Y94768D01*
D02*
G37*
G36*
X360848Y154568D02*
X360871Y154566D01*
X360897Y154565D01*
X360921Y154562D01*
X360942Y154559D01*
X360945D01*
X360955Y154557D01*
X360967Y154554D01*
X360984Y154550D01*
X361003Y154543D01*
X361022Y154534D01*
X361043Y154524D01*
X361062Y154513D01*
X361065Y154512D01*
X361070Y154507D01*
X361079Y154499D01*
X361090Y154489D01*
X361103Y154476D01*
X361115Y154459D01*
X361129Y154441D01*
X361141Y154420D01*
X361142Y154417D01*
X361145Y154410D01*
X361151Y154397D01*
X361156Y154380D01*
X361160Y154361D01*
X361166Y154338D01*
X361169Y154313D01*
X361170Y154286D01*
Y154285D01*
Y154280D01*
Y154275D01*
X361169Y154265D01*
X361168Y154255D01*
X361166Y154242D01*
X361163Y154228D01*
X361160Y154213D01*
X361151Y154180D01*
X361145Y154163D01*
X361137Y154145D01*
X361127Y154127D01*
X361117Y154110D01*
X361104Y154093D01*
X361090Y154076D01*
X361089Y154075D01*
X361086Y154072D01*
X361082Y154067D01*
X361074Y154063D01*
X361066Y154056D01*
X361055Y154049D01*
X361041Y154041D01*
X361025Y154034D01*
X361007Y154025D01*
X360986Y154017D01*
X360963Y154010D01*
X360936Y154004D01*
X360908Y153998D01*
X360877Y153994D01*
X360842Y153991D01*
X360805Y153990D01*
X360556D01*
Y153594D01*
X360426D01*
Y154569D01*
X360826D01*
X360848Y154568D01*
D02*
G37*
G36*
X268463Y183884D02*
X268474Y183882D01*
X268488Y183881D01*
X268503Y183878D01*
X268519Y183875D01*
X268556Y183865D01*
X268592Y183851D01*
X268611Y183843D01*
X268629Y183833D01*
X268646Y183820D01*
X268661Y183806D01*
X268663Y183805D01*
X268666Y183803D01*
X268668Y183798D01*
X268674Y183792D01*
X268681Y183785D01*
X268688Y183775D01*
X268695Y183765D01*
X268704Y183753D01*
X268718Y183726D01*
X268732Y183692D01*
X268737Y183675D01*
X268740Y183655D01*
X268743Y183636D01*
X268745Y183614D01*
Y183612D01*
Y183605D01*
X268743Y183593D01*
X268742Y183578D01*
X268739Y183561D01*
X268733Y183541D01*
X268728Y183520D01*
X268719Y183499D01*
X268718Y183496D01*
X268715Y183489D01*
X268709Y183478D01*
X268701Y183462D01*
X268690Y183445D01*
X268675Y183424D01*
X268659Y183403D01*
X268639Y183379D01*
X268636Y183376D01*
X268629Y183368D01*
X268622Y183361D01*
X268615Y183354D01*
X268606Y183345D01*
X268595Y183334D01*
X268584Y183323D01*
X268570Y183310D01*
X268556Y183296D01*
X268539Y183280D01*
X268520Y183265D01*
X268501Y183247D01*
X268478Y183228D01*
X268456Y183208D01*
X268454Y183207D01*
X268451Y183204D01*
X268446Y183200D01*
X268439Y183194D01*
X268430Y183186D01*
X268420Y183177D01*
X268398Y183159D01*
X268374Y183138D01*
X268351Y183117D01*
X268332Y183099D01*
X268323Y183091D01*
X268316Y183084D01*
X268315Y183083D01*
X268310Y183079D01*
X268305Y183073D01*
X268298Y183065D01*
X268291Y183055D01*
X268282Y183045D01*
X268265Y183021D01*
X268746D01*
Y182905D01*
X268099D01*
Y182907D01*
Y182912D01*
Y182921D01*
X268100Y182932D01*
X268102Y182945D01*
X268105Y182959D01*
X268107Y182973D01*
X268113Y182989D01*
Y182990D01*
X268114Y182991D01*
X268117Y183000D01*
X268123Y183013D01*
X268131Y183029D01*
X268143Y183049D01*
X268157Y183072D01*
X268172Y183094D01*
X268192Y183118D01*
Y183120D01*
X268195Y183121D01*
X268202Y183130D01*
X268215Y183142D01*
X268233Y183161D01*
X268254Y183182D01*
X268281Y183207D01*
X268313Y183235D01*
X268348Y183265D01*
X268350Y183266D01*
X268355Y183271D01*
X268364Y183278D01*
X268374Y183286D01*
X268386Y183297D01*
X268402Y183310D01*
X268418Y183324D01*
X268436Y183340D01*
X268471Y183373D01*
X268506Y183407D01*
X268523Y183424D01*
X268539Y183441D01*
X268553Y183457D01*
X268564Y183472D01*
Y183474D01*
X268567Y183475D01*
X268570Y183479D01*
X268573Y183485D01*
X268582Y183500D01*
X268594Y183519D01*
X268604Y183541D01*
X268613Y183565D01*
X268619Y183592D01*
X268622Y183617D01*
Y183619D01*
Y183620D01*
X268620Y183629D01*
X268619Y183643D01*
X268615Y183658D01*
X268609Y183678D01*
X268599Y183698D01*
X268587Y183717D01*
X268570Y183737D01*
X268567Y183740D01*
X268560Y183746D01*
X268550Y183753D01*
X268534Y183762D01*
X268515Y183771D01*
X268492Y183779D01*
X268465Y183785D01*
X268436Y183786D01*
X268427D01*
X268422Y183785D01*
X268405Y183784D01*
X268385Y183779D01*
X268364Y183774D01*
X268340Y183764D01*
X268317Y183751D01*
X268296Y183734D01*
X268293Y183731D01*
X268288Y183724D01*
X268279Y183713D01*
X268271Y183696D01*
X268261Y183677D01*
X268253Y183651D01*
X268247Y183623D01*
X268244Y183591D01*
X268121Y183603D01*
Y183605D01*
X268123Y183609D01*
Y183616D01*
X268124Y183626D01*
X268127Y183637D01*
X268130Y183650D01*
X268134Y183665D01*
X268138Y183681D01*
X268150Y183715D01*
X268167Y183748D01*
X268176Y183765D01*
X268189Y183782D01*
X268202Y183798D01*
X268216Y183812D01*
X268217Y183813D01*
X268220Y183815D01*
X268224Y183819D01*
X268231Y183823D01*
X268240Y183829D01*
X268250Y183834D01*
X268261Y183841D01*
X268275Y183848D01*
X268291Y183856D01*
X268308Y183863D01*
X268326Y183868D01*
X268346Y183874D01*
X268367Y183878D01*
X268389Y183882D01*
X268413Y183884D01*
X268439Y183885D01*
X268453D01*
X268463Y183884D01*
D02*
G37*
G36*
X266588Y163483D02*
X266612Y163482D01*
X266637Y163480D01*
X266661Y163478D01*
X266683Y163475D01*
X266685D01*
X266695Y163472D01*
X266708Y163469D01*
X266725Y163465D01*
X266743Y163458D01*
X266763Y163449D01*
X266784Y163440D01*
X266802Y163428D01*
X266805Y163427D01*
X266811Y163423D01*
X266819Y163414D01*
X266831Y163404D01*
X266843Y163392D01*
X266856Y163375D01*
X266870Y163356D01*
X266881Y163335D01*
X266883Y163332D01*
X266886Y163325D01*
X266891Y163313D01*
X266897Y163296D01*
X266901Y163276D01*
X266907Y163254D01*
X266910Y163228D01*
X266911Y163201D01*
Y163200D01*
Y163196D01*
Y163190D01*
X266910Y163180D01*
X266908Y163170D01*
X266907Y163158D01*
X266904Y163144D01*
X266901Y163128D01*
X266891Y163096D01*
X266886Y163079D01*
X266877Y163060D01*
X266867Y163042D01*
X266857Y163025D01*
X266845Y163008D01*
X266831Y162991D01*
X266829Y162990D01*
X266826Y162987D01*
X266822Y162983D01*
X266815Y162979D01*
X266807Y162972D01*
X266795Y162965D01*
X266781Y162956D01*
X266766Y162949D01*
X266747Y162941D01*
X266726Y162932D01*
X266704Y162925D01*
X266677Y162919D01*
X266649Y162914D01*
X266618Y162910D01*
X266582Y162907D01*
X266546Y162905D01*
X266296D01*
Y162509D01*
X266167D01*
Y163485D01*
X266567D01*
X266588Y163483D01*
D02*
G37*
G36*
X267373Y163488D02*
X267385Y163486D01*
X267399Y163485D01*
X267414Y163482D01*
X267430Y163479D01*
X267466Y163469D01*
X267503Y163455D01*
X267521Y163447D01*
X267540Y163437D01*
X267557Y163424D01*
X267572Y163410D01*
X267573Y163409D01*
X267576Y163407D01*
X267579Y163402D01*
X267585Y163396D01*
X267592Y163389D01*
X267599Y163379D01*
X267606Y163369D01*
X267614Y163356D01*
X267628Y163330D01*
X267643Y163296D01*
X267648Y163279D01*
X267651Y163259D01*
X267654Y163239D01*
X267655Y163218D01*
Y163215D01*
Y163208D01*
X267654Y163197D01*
X267652Y163182D01*
X267650Y163165D01*
X267644Y163145D01*
X267638Y163124D01*
X267630Y163103D01*
X267628Y163100D01*
X267626Y163093D01*
X267620Y163082D01*
X267612Y163066D01*
X267600Y163049D01*
X267586Y163028D01*
X267569Y163007D01*
X267550Y162983D01*
X267547Y162980D01*
X267540Y162972D01*
X267533Y162965D01*
X267526Y162957D01*
X267517Y162949D01*
X267506Y162938D01*
X267495Y162926D01*
X267480Y162914D01*
X267466Y162900D01*
X267449Y162884D01*
X267431Y162869D01*
X267411Y162850D01*
X267389Y162832D01*
X267366Y162812D01*
X267365Y162811D01*
X267362Y162808D01*
X267356Y162804D01*
X267349Y162798D01*
X267341Y162790D01*
X267331Y162781D01*
X267308Y162763D01*
X267284Y162742D01*
X267262Y162721D01*
X267242Y162702D01*
X267234Y162695D01*
X267227Y162688D01*
X267225Y162687D01*
X267221Y162683D01*
X267215Y162677D01*
X267208Y162669D01*
X267201Y162659D01*
X267193Y162649D01*
X267176Y162625D01*
X267657D01*
Y162509D01*
X267010D01*
Y162511D01*
Y162516D01*
Y162525D01*
X267011Y162536D01*
X267012Y162549D01*
X267015Y162563D01*
X267018Y162577D01*
X267024Y162592D01*
Y162594D01*
X267025Y162595D01*
X267028Y162604D01*
X267034Y162616D01*
X267042Y162633D01*
X267053Y162653D01*
X267067Y162676D01*
X267083Y162698D01*
X267103Y162722D01*
Y162723D01*
X267105Y162725D01*
X267113Y162733D01*
X267125Y162746D01*
X267144Y162764D01*
X267165Y162786D01*
X267191Y162811D01*
X267224Y162839D01*
X267259Y162869D01*
X267261Y162870D01*
X267266Y162874D01*
X267275Y162881D01*
X267284Y162890D01*
X267297Y162901D01*
X267313Y162914D01*
X267328Y162928D01*
X267347Y162943D01*
X267382Y162977D01*
X267417Y163011D01*
X267434Y163028D01*
X267449Y163045D01*
X267464Y163060D01*
X267475Y163076D01*
Y163077D01*
X267478Y163079D01*
X267480Y163083D01*
X267483Y163089D01*
X267493Y163104D01*
X267504Y163122D01*
X267514Y163145D01*
X267524Y163169D01*
X267530Y163196D01*
X267533Y163221D01*
Y163223D01*
Y163224D01*
X267531Y163232D01*
X267530Y163246D01*
X267526Y163262D01*
X267520Y163282D01*
X267510Y163301D01*
X267497Y163321D01*
X267480Y163341D01*
X267478Y163344D01*
X267471Y163349D01*
X267461Y163356D01*
X267445Y163366D01*
X267425Y163375D01*
X267403Y163383D01*
X267376Y163389D01*
X267347Y163390D01*
X267338D01*
X267332Y163389D01*
X267316Y163387D01*
X267296Y163383D01*
X267275Y163378D01*
X267251Y163368D01*
X267228Y163355D01*
X267207Y163338D01*
X267204Y163335D01*
X267198Y163328D01*
X267190Y163317D01*
X267182Y163300D01*
X267172Y163280D01*
X267163Y163255D01*
X267158Y163227D01*
X267155Y163194D01*
X267032Y163207D01*
Y163208D01*
X267034Y163213D01*
Y163220D01*
X267035Y163230D01*
X267038Y163241D01*
X267041Y163254D01*
X267045Y163269D01*
X267049Y163285D01*
X267060Y163318D01*
X267077Y163352D01*
X267087Y163369D01*
X267100Y163386D01*
X267113Y163402D01*
X267127Y163416D01*
X267128Y163417D01*
X267131Y163418D01*
X267135Y163423D01*
X267142Y163427D01*
X267151Y163433D01*
X267160Y163438D01*
X267172Y163445D01*
X267186Y163452D01*
X267201Y163459D01*
X267218Y163466D01*
X267237Y163472D01*
X267256Y163478D01*
X267277Y163482D01*
X267300Y163486D01*
X267324Y163488D01*
X267349Y163489D01*
X267363D01*
X267373Y163488D01*
D02*
G37*
G36*
X307212Y113526D02*
X307223Y113524D01*
X307237Y113523D01*
X307253Y113520D01*
X307268Y113517D01*
X307305Y113507D01*
X307341Y113493D01*
X307360Y113485D01*
X307378Y113475D01*
X307395Y113462D01*
X307410Y113448D01*
X307412Y113447D01*
X307415Y113445D01*
X307418Y113440D01*
X307423Y113434D01*
X307430Y113427D01*
X307437Y113417D01*
X307444Y113407D01*
X307453Y113395D01*
X307467Y113368D01*
X307481Y113334D01*
X307487Y113317D01*
X307489Y113297D01*
X307492Y113278D01*
X307494Y113256D01*
Y113254D01*
Y113247D01*
X307492Y113235D01*
X307491Y113220D01*
X307488Y113203D01*
X307482Y113183D01*
X307477Y113162D01*
X307468Y113141D01*
X307467Y113138D01*
X307464Y113131D01*
X307458Y113120D01*
X307450Y113104D01*
X307439Y113087D01*
X307425Y113066D01*
X307408Y113045D01*
X307388Y113021D01*
X307385Y113018D01*
X307378Y113010D01*
X307371Y113003D01*
X307364Y112996D01*
X307355Y112987D01*
X307344Y112976D01*
X307333Y112965D01*
X307319Y112952D01*
X307305Y112938D01*
X307288Y112922D01*
X307269Y112907D01*
X307250Y112889D01*
X307227Y112870D01*
X307205Y112850D01*
X307203Y112849D01*
X307200Y112846D01*
X307195Y112842D01*
X307188Y112836D01*
X307179Y112828D01*
X307169Y112819D01*
X307147Y112801D01*
X307123Y112780D01*
X307100Y112759D01*
X307081Y112741D01*
X307072Y112733D01*
X307065Y112726D01*
X307064Y112725D01*
X307059Y112721D01*
X307054Y112715D01*
X307047Y112707D01*
X307040Y112697D01*
X307031Y112687D01*
X307014Y112663D01*
X307495D01*
Y112547D01*
X306848D01*
Y112549D01*
Y112554D01*
Y112563D01*
X306849Y112574D01*
X306851Y112587D01*
X306854Y112601D01*
X306856Y112615D01*
X306862Y112631D01*
Y112632D01*
X306863Y112633D01*
X306866Y112642D01*
X306872Y112655D01*
X306880Y112671D01*
X306892Y112691D01*
X306906Y112714D01*
X306921Y112736D01*
X306941Y112760D01*
Y112762D01*
X306944Y112763D01*
X306951Y112772D01*
X306964Y112784D01*
X306982Y112803D01*
X307003Y112824D01*
X307030Y112849D01*
X307062Y112877D01*
X307098Y112907D01*
X307099Y112908D01*
X307105Y112913D01*
X307113Y112920D01*
X307123Y112928D01*
X307136Y112939D01*
X307151Y112952D01*
X307167Y112966D01*
X307185Y112982D01*
X307220Y113015D01*
X307255Y113049D01*
X307272Y113066D01*
X307288Y113083D01*
X307302Y113099D01*
X307313Y113114D01*
Y113116D01*
X307316Y113117D01*
X307319Y113121D01*
X307322Y113127D01*
X307332Y113142D01*
X307343Y113161D01*
X307353Y113183D01*
X307363Y113207D01*
X307368Y113234D01*
X307371Y113259D01*
Y113261D01*
Y113262D01*
X307370Y113271D01*
X307368Y113285D01*
X307364Y113300D01*
X307358Y113320D01*
X307348Y113340D01*
X307336Y113359D01*
X307319Y113379D01*
X307316Y113382D01*
X307309Y113388D01*
X307299Y113395D01*
X307284Y113405D01*
X307264Y113413D01*
X307241Y113421D01*
X307215Y113427D01*
X307185Y113428D01*
X307176D01*
X307171Y113427D01*
X307154Y113426D01*
X307134Y113421D01*
X307113Y113416D01*
X307089Y113406D01*
X307066Y113393D01*
X307045Y113376D01*
X307043Y113373D01*
X307037Y113366D01*
X307028Y113355D01*
X307020Y113338D01*
X307010Y113319D01*
X307002Y113293D01*
X306996Y113265D01*
X306993Y113233D01*
X306871Y113245D01*
Y113247D01*
X306872Y113251D01*
Y113258D01*
X306873Y113268D01*
X306876Y113279D01*
X306879Y113292D01*
X306883Y113307D01*
X306887Y113323D01*
X306899Y113357D01*
X306916Y113390D01*
X306926Y113407D01*
X306938Y113424D01*
X306951Y113440D01*
X306965Y113454D01*
X306966Y113455D01*
X306969Y113457D01*
X306973Y113461D01*
X306980Y113465D01*
X306989Y113471D01*
X306999Y113476D01*
X307010Y113483D01*
X307024Y113490D01*
X307040Y113498D01*
X307057Y113505D01*
X307075Y113510D01*
X307095Y113516D01*
X307116Y113520D01*
X307138Y113524D01*
X307162Y113526D01*
X307188Y113527D01*
X307202D01*
X307212Y113526D01*
D02*
G37*
G36*
X361789Y153938D02*
X361922D01*
Y153828D01*
X361789D01*
Y153594D01*
X361669D01*
Y153828D01*
X361245D01*
Y153938D01*
X361692Y154569D01*
X361789D01*
Y153938D01*
D02*
G37*
%LPC*%
G36*
X360835Y154454D02*
X360556D01*
Y154106D01*
X360818D01*
X360828Y154107D01*
X360838D01*
X360849Y154108D01*
X360876Y154111D01*
X360905Y154117D01*
X360935Y154125D01*
X360962Y154137D01*
X360974Y154144D01*
X360984Y154152D01*
X360987Y154155D01*
X360993Y154161D01*
X361001Y154172D01*
X361011Y154186D01*
X361021Y154204D01*
X361029Y154227D01*
X361035Y154252D01*
X361038Y154282D01*
Y154283D01*
Y154285D01*
Y154292D01*
X361036Y154304D01*
X361034Y154318D01*
X361031Y154334D01*
X361025Y154352D01*
X361017Y154369D01*
X361007Y154386D01*
X361005Y154387D01*
X361001Y154393D01*
X360994Y154400D01*
X360986Y154410D01*
X360973Y154420D01*
X360959Y154428D01*
X360943Y154437D01*
X360925Y154444D01*
X360924D01*
X360918Y154445D01*
X360910Y154447D01*
X360898Y154449D01*
X360881Y154451D01*
X360860Y154452D01*
X360835Y154454D01*
D02*
G37*
G36*
X271798Y183887D02*
X271491D01*
Y183564D01*
X271781D01*
X271798Y183565D01*
X271818Y183567D01*
X271840Y183568D01*
X271863Y183571D01*
X271885Y183575D01*
X271905Y183581D01*
X271908Y183582D01*
X271914Y183585D01*
X271922Y183589D01*
X271933Y183595D01*
X271946Y183603D01*
X271959Y183613D01*
X271971Y183626D01*
X271981Y183640D01*
X271983Y183641D01*
X271985Y183647D01*
X271990Y183655D01*
X271995Y183667D01*
X271999Y183679D01*
X272004Y183694D01*
X272007Y183710D01*
X272008Y183727D01*
Y183729D01*
Y183730D01*
X272007Y183739D01*
X272005Y183751D01*
X272002Y183768D01*
X271995Y183785D01*
X271987Y183805D01*
X271974Y183823D01*
X271957Y183842D01*
X271954Y183843D01*
X271947Y183849D01*
X271936Y183856D01*
X271918Y183864D01*
X271897Y183873D01*
X271868Y183880D01*
X271836Y183885D01*
X271798Y183887D01*
D02*
G37*
G36*
X294428Y122783D02*
X294425D01*
X294416Y122782D01*
X294404Y122780D01*
X294387Y122777D01*
X294370Y122770D01*
X294350Y122762D01*
X294332Y122749D01*
X294313Y122732D01*
X294312Y122729D01*
X294306Y122722D01*
X294299Y122711D01*
X294291Y122693D01*
X294282Y122672D01*
X294275Y122643D01*
X294270Y122611D01*
X294268Y122573D01*
Y122266D01*
X294591D01*
Y122542D01*
Y122543D01*
Y122546D01*
Y122550D01*
Y122556D01*
X294590Y122573D01*
X294588Y122593D01*
X294587Y122615D01*
X294584Y122638D01*
X294580Y122660D01*
X294574Y122680D01*
X294573Y122683D01*
X294570Y122688D01*
X294566Y122697D01*
X294560Y122708D01*
X294552Y122721D01*
X294542Y122734D01*
X294529Y122746D01*
X294515Y122756D01*
X294514Y122758D01*
X294508Y122760D01*
X294500Y122765D01*
X294488Y122770D01*
X294476Y122774D01*
X294461Y122779D01*
X294445Y122782D01*
X294428Y122783D01*
D02*
G37*
G36*
X361669Y154375D02*
X361362Y153938D01*
X361669D01*
Y154375D01*
D02*
G37*
G36*
X266575Y163369D02*
X266296D01*
Y163021D01*
X266559D01*
X266568Y163022D01*
X266578D01*
X266590Y163024D01*
X266616Y163027D01*
X266646Y163032D01*
X266676Y163041D01*
X266702Y163052D01*
X266715Y163059D01*
X266725Y163067D01*
X266728Y163070D01*
X266733Y163076D01*
X266742Y163087D01*
X266752Y163101D01*
X266762Y163120D01*
X266770Y163142D01*
X266776Y163168D01*
X266778Y163197D01*
Y163199D01*
Y163200D01*
Y163207D01*
X266777Y163220D01*
X266774Y163234D01*
X266771Y163249D01*
X266766Y163268D01*
X266757Y163285D01*
X266747Y163301D01*
X266746Y163303D01*
X266742Y163309D01*
X266735Y163316D01*
X266726Y163325D01*
X266714Y163335D01*
X266699Y163344D01*
X266684Y163352D01*
X266666Y163359D01*
X266664D01*
X266659Y163361D01*
X266650Y163362D01*
X266639Y163365D01*
X266622Y163366D01*
X266601Y163368D01*
X266575Y163369D01*
D02*
G37*
G36*
X326369Y112582D02*
X326090D01*
Y112234D01*
X326352D01*
X326362Y112235D01*
X326372D01*
X326383Y112236D01*
X326410Y112239D01*
X326440Y112245D01*
X326469Y112253D01*
X326496Y112265D01*
X326509Y112272D01*
X326519Y112280D01*
X326521Y112283D01*
X326527Y112289D01*
X326535Y112300D01*
X326545Y112314D01*
X326555Y112332D01*
X326564Y112355D01*
X326569Y112380D01*
X326572Y112410D01*
Y112411D01*
Y112413D01*
Y112420D01*
X326571Y112432D01*
X326568Y112446D01*
X326565Y112462D01*
X326559Y112480D01*
X326551Y112497D01*
X326541Y112514D01*
X326540Y112516D01*
X326535Y112521D01*
X326528Y112528D01*
X326520Y112538D01*
X326507Y112548D01*
X326493Y112556D01*
X326478Y112565D01*
X326459Y112572D01*
X326458D01*
X326452Y112573D01*
X326444Y112575D01*
X326433Y112578D01*
X326416Y112579D01*
X326394Y112580D01*
X326369Y112582D01*
D02*
G37*
G36*
X267620Y183772D02*
X267312D01*
Y183450D01*
X267603D01*
X267620Y183451D01*
X267639Y183452D01*
X267662Y183454D01*
X267684Y183457D01*
X267707Y183461D01*
X267727Y183466D01*
X267730Y183468D01*
X267735Y183471D01*
X267744Y183475D01*
X267755Y183481D01*
X267768Y183489D01*
X267780Y183499D01*
X267793Y183512D01*
X267803Y183526D01*
X267804Y183527D01*
X267807Y183533D01*
X267811Y183541D01*
X267817Y183552D01*
X267821Y183565D01*
X267825Y183579D01*
X267828Y183596D01*
X267830Y183613D01*
Y183614D01*
Y183616D01*
X267828Y183624D01*
X267827Y183637D01*
X267824Y183654D01*
X267817Y183671D01*
X267809Y183691D01*
X267796Y183709D01*
X267779Y183727D01*
X267776Y183729D01*
X267769Y183734D01*
X267758Y183741D01*
X267739Y183750D01*
X267718Y183758D01*
X267690Y183765D01*
X267658Y183771D01*
X267620Y183772D01*
D02*
G37*
G36*
X273283Y112455D02*
X273004D01*
Y112107D01*
X273266D01*
X273276Y112108D01*
X273286D01*
X273297Y112109D01*
X273324Y112112D01*
X273354Y112118D01*
X273383Y112126D01*
X273410Y112138D01*
X273423Y112145D01*
X273432Y112153D01*
X273435Y112156D01*
X273441Y112162D01*
X273449Y112173D01*
X273459Y112187D01*
X273469Y112205D01*
X273478Y112228D01*
X273483Y112253D01*
X273486Y112283D01*
Y112284D01*
Y112286D01*
Y112293D01*
X273485Y112305D01*
X273482Y112319D01*
X273479Y112335D01*
X273473Y112353D01*
X273465Y112370D01*
X273455Y112387D01*
X273454Y112389D01*
X273449Y112394D01*
X273442Y112401D01*
X273434Y112411D01*
X273421Y112421D01*
X273407Y112429D01*
X273392Y112438D01*
X273373Y112445D01*
X273372D01*
X273366Y112446D01*
X273358Y112448D01*
X273347Y112451D01*
X273330Y112452D01*
X273308Y112453D01*
X273283Y112455D01*
D02*
G37*
G36*
X359692Y166087D02*
X359413D01*
Y165739D01*
X359675D01*
X359685Y165740D01*
X359695D01*
X359706Y165742D01*
X359733Y165744D01*
X359762Y165750D01*
X359792Y165758D01*
X359819Y165770D01*
X359831Y165777D01*
X359841Y165785D01*
X359844Y165788D01*
X359850Y165794D01*
X359858Y165805D01*
X359868Y165819D01*
X359878Y165837D01*
X359886Y165860D01*
X359892Y165885D01*
X359895Y165915D01*
Y165916D01*
Y165918D01*
Y165925D01*
X359893Y165937D01*
X359891Y165952D01*
X359888Y165967D01*
X359882Y165985D01*
X359874Y166002D01*
X359864Y166019D01*
X359862Y166021D01*
X359858Y166026D01*
X359851Y166033D01*
X359843Y166043D01*
X359830Y166053D01*
X359816Y166062D01*
X359800Y166070D01*
X359782Y166077D01*
X359781D01*
X359775Y166078D01*
X359767Y166080D01*
X359755Y166083D01*
X359738Y166084D01*
X359717Y166086D01*
X359692Y166087D01*
D02*
G37*
G36*
X272187Y128317D02*
X272173D01*
X272162Y128316D01*
X272149D01*
X272135Y128314D01*
X272118Y128313D01*
X272101Y128311D01*
X272063Y128304D01*
X272023Y128296D01*
X271987Y128283D01*
X271968Y128275D01*
X271953Y128266D01*
X271951D01*
X271949Y128263D01*
X271944Y128261D01*
X271939Y128258D01*
X271925Y128246D01*
X271908Y128232D01*
X271889Y128214D01*
X271871Y128193D01*
X271856Y128169D01*
X271843Y128144D01*
X271842Y128141D01*
X271840Y128134D01*
X271836Y128121D01*
X271832Y128103D01*
X271829Y128080D01*
X271825Y128052D01*
X271823Y128035D01*
Y128017D01*
X271822Y127998D01*
Y127977D01*
Y127773D01*
X272566D01*
Y127980D01*
Y127981D01*
Y127984D01*
Y127990D01*
Y127996D01*
Y128004D01*
X272565Y128014D01*
X272563Y128035D01*
X272562Y128059D01*
X272559Y128084D01*
X272555Y128110D01*
X272549Y128131D01*
X272548Y128134D01*
X272546Y128141D01*
X272542Y128151D01*
X272536Y128163D01*
X272528Y128177D01*
X272520Y128191D01*
X272510Y128206D01*
X272498Y128220D01*
X272496Y128221D01*
X272490Y128227D01*
X272480Y128235D01*
X272466Y128245D01*
X272448Y128256D01*
X272427Y128269D01*
X272403Y128280D01*
X272376Y128290D01*
X272374D01*
X272372Y128292D01*
X272367Y128293D01*
X272362Y128294D01*
X272355Y128296D01*
X272345Y128299D01*
X272335Y128301D01*
X272324Y128304D01*
X272295Y128309D01*
X272263Y128313D01*
X272226Y128316D01*
X272187Y128317D01*
D02*
G37*
G36*
X312803Y107032D02*
X312524D01*
Y106684D01*
X312786D01*
X312796Y106685D01*
X312806D01*
X312818Y106687D01*
X312844Y106689D01*
X312874Y106695D01*
X312904Y106703D01*
X312930Y106715D01*
X312943Y106722D01*
X312953Y106730D01*
X312956Y106733D01*
X312961Y106739D01*
X312970Y106750D01*
X312980Y106764D01*
X312990Y106782D01*
X312998Y106805D01*
X313004Y106830D01*
X313006Y106860D01*
Y106861D01*
Y106863D01*
Y106870D01*
X313005Y106882D01*
X313002Y106897D01*
X312999Y106912D01*
X312994Y106930D01*
X312985Y106947D01*
X312975Y106964D01*
X312974Y106966D01*
X312970Y106971D01*
X312963Y106978D01*
X312954Y106988D01*
X312942Y106998D01*
X312927Y107007D01*
X312912Y107015D01*
X312894Y107022D01*
X312892D01*
X312887Y107023D01*
X312878Y107025D01*
X312867Y107028D01*
X312850Y107029D01*
X312829Y107031D01*
X312803Y107032D01*
D02*
G37*
%LPD*%
D25*
X315671Y89823D02*
G03*
X315671Y89823I-1270J0D01*
G01*
X278621Y128270D02*
G03*
X278621Y128270I-2500J0D01*
G01*
Y159270D02*
G03*
X278621Y159270I-2500J0D01*
G01*
X353621D02*
G03*
X353621Y159270I-2500J0D01*
G01*
Y128270D02*
G03*
X353621Y128270I-2500J0D01*
G01*
X283007Y198755D02*
X293980D01*
X300838Y165481D02*
Y191897D01*
X276149Y165481D02*
Y191897D01*
Y165481D02*
X300838D01*
X276149Y191897D02*
X283007Y198755D01*
X293980D02*
X300838Y191897D01*
X312674Y92825D02*
X316126D01*
Y86825D02*
Y92825D01*
X312674Y86825D02*
Y92825D01*
Y86825D02*
X316126D01*
X310515Y97790D02*
X315595D01*
Y105410D01*
X310515D02*
X315595D01*
X310515Y97790D02*
Y105410D01*
X304165Y109220D02*
Y111760D01*
X309245D01*
Y109220D02*
Y111760D01*
X304165Y109220D02*
X309245D01*
X271145Y186690D02*
X273685D01*
X271145D02*
Y191770D01*
X273685D01*
Y186690D02*
Y191770D01*
X273621Y161770D02*
X353621D01*
X273621Y125770D02*
Y161770D01*
X353621Y125770D02*
Y161770D01*
X273621Y125770D02*
X353621D01*
X276289Y212509D02*
Y214033D01*
X276796Y213525D01*
X277304Y214033D01*
Y212509D01*
X277812D02*
X278320D01*
X278066D01*
Y214033D01*
X277812Y213779D01*
X279400Y190627D02*
X279908D01*
X279654D01*
Y192151D01*
X279400Y191897D01*
D26*
X365125Y139700D02*
Y152900D01*
X357225Y139700D02*
Y152900D01*
Y139700D02*
X365125D01*
X357225Y152900D02*
X365125D01*
X262160Y146830D02*
Y161830D01*
Y146830D02*
X271660D01*
Y161830D01*
X262160D02*
X271660D01*
X353248Y77216D02*
Y110916D01*
X326898D02*
X353248D01*
X326898Y77216D02*
Y110916D01*
Y77216D02*
X353248D01*
X300162Y77089D02*
Y110789D01*
X273812D02*
X300162D01*
X273812Y77089D02*
Y110789D01*
Y77089D02*
X300162D01*
X344551Y120650D02*
X346075Y119126D01*
Y107696D02*
X348615Y105156D01*
X346075Y69850D02*
X348615Y72390D01*
X346075Y107696D02*
Y119126D01*
X348615Y72390D02*
Y105156D01*
X280035Y67310D02*
Y120650D01*
X346075Y67310D02*
Y69850D01*
X280035Y120650D02*
X344551D01*
X280035Y67310D02*
X346075D01*
D27*
X357099Y159385D02*
Y164465D01*
Y159385D02*
X362966D01*
Y164465D01*
X357099D02*
X362966D01*
X306070Y127000D02*
Y129540D01*
X344805D01*
X346710D01*
Y127000D02*
Y129540D01*
X306070Y127000D02*
X346710D01*
D28*
X266954Y178943D02*
X268986D01*
Y172847D02*
Y178943D01*
X266954Y172847D02*
X268986D01*
X266954D02*
Y178943D01*
X267970D02*
Y179395D01*
Y172395D02*
Y172847D01*
X305308Y122174D02*
Y124206D01*
X299212Y122174D02*
X305308D01*
X299212D02*
Y124206D01*
X305308D01*
Y123190D02*
X305760D01*
X298760D02*
X299212D01*
X271399Y172847D02*
X273431D01*
X271399D02*
Y178943D01*
X273431D01*
Y172847D02*
Y178943D01*
X272415Y172395D02*
Y172847D01*
Y178943D02*
Y179395D01*
M02*
